<svg xmlns="http://www.w3.org/2000/svg" viewBox="0 0 487 487"><defs><style>.cls-1{fill:#fff;}.cls-2{fill:#333;}.cls-3{fill:#2a363b;}.cls-4{fill:none;stroke:#2a363b;stroke-miterlimit:10;stroke-width:8px;}</style></defs><title>rugir-color-full</title><g id="fond"><circle class="cls-1" cx="243" cy="244" r="238"/></g><g id="sceau"><g id="lion"><path id="criniere_et_visage" data-name="criniere et visage" class="cls-2" d="M93.86,260.54a6.82,6.82,0,0,0,.52-1.48c.79-7,1.4-14,2.35-21a120.9,120.9,0,0,1,6.22-26.4c1.24-3.29,2.84-6.44,4.26-9.66.2-.46.34-.95.51-1.42l-.39-.34c-1.55,1.06-3.18,2-4.64,3.21s-2.81,2.55-4.53,3.71a32.3,32.3,0,0,1,.71-4.77c1.39-4.63,2.73-9.3,4.5-13.8a102.76,102.76,0,0,1,10.81-19.69,160.23,160.23,0,0,1,19.53-23.51,10.06,10.06,0,0,0,1.6-3c1.51-3.28,4.28-5.3,7.36-6.71a68.37,68.37,0,0,0,12.86-7.5c-2.61.3-4.8,2-7.37,2.48,15.06-15.82,34-23.65,55.18-26.93l.07-.39-3.07-1.09-3.14-1.06.06-.39c2-.51,4-1.11,6.06-1.5,4.49-.87,9-1.73,13.51-2.4a62.05,62.05,0,0,1,19.71,0c3.51.6,7,1.42,10.45,2.25,2.16.52,4-.49,6.06-.81,4.06-.64,8.1-1.48,12.18-1.93,7.54-.83,15,.2,22.4,1.56,4.12.76,8.18,1.81,12.27,2.73l.07.46-6.25,2.09,0,.45C315,107,334,115,349.1,131l-7.4-3.08-.2.47c2,1.29,3.95,2.7,6,3.85,2.39,1.32,4.93,2.37,7.35,3.63s5.08,2.85,6.18,5.46c1.61,3.84,4.67,6.36,7.33,9.26,10.13,11,18.75,23.07,24.91,36.77a68.14,68.14,0,0,1,5.61,19,7.52,7.52,0,0,1-.07,1.1c-3-2.7-5.47-5.69-9.48-6.82.38.87.72,1.77,1.16,2.62a84.91,84.91,0,0,1,5.88,15.33,148.62,148.62,0,0,1,4.9,27.67c.48,5.38.7,10.78.85,16.18.14,4.72,0,9.44,0,14.16a11.94,11.94,0,0,1-.56,3.31c-1.43-3.39-2.31-7-5.33-9.56.1.77.15,1.56.31,2.32a52.15,52.15,0,0,1,0,19.66c-2.33,13.75-8,26.18-15.08,38a151.06,151.06,0,0,1-23.11,29.73,65.5,65.5,0,0,1-13.5,10.72,9,9,0,0,1-1.12.39,32.17,32.17,0,0,0,3.94-15.49c-8.07,20.06-23.73,31.56-43.32,39l1.93-11-.44-.33c-8.64,11.48-20.53,17.07-34.31,19.35a23.15,23.15,0,0,0,3.41-11,25.16,25.16,0,0,1-3,1.46c-4.39,1.42-8.82,2.7-13.19,4.16a41.45,41.45,0,0,0-6.67,2.75,11.34,11.34,0,0,0-2.9,3c-.41.5-.79,1-1.16.23-1.51-3.21-4.49-4.3-7.51-5.26-4.52-1.44-9.11-2.7-13.64-4.13a35,35,0,0,1-3.74-1.68c-.27-.12-.56-.19-1.11-.36.52,4,1.19,7.58,3.49,10.87a57,57,0,0,1-19-6.08,47.32,47.32,0,0,1-15.3-13.1l-.5.18,1.87,10.86a79.9,79.9,0,0,1-26-14.75,61.44,61.44,0,0,1-17.28-24.16,35.1,35.1,0,0,0,3.56,15.38,10.34,10.34,0,0,1-1.35-.57,63.61,63.61,0,0,1-11.41-9,152.13,152.13,0,0,1-31-43,100.64,100.64,0,0,1-7.57-20.71,60.5,60.5,0,0,1-1.48-23.31,39.24,39.24,0,0,0,.56-4.14c-2.84,2.58-3.78,6.1-5,9.5h-.4c-.28-1.4-.54-2.8-.86-4.19a16.08,16.08,0,0,0-.61-1.74ZM203,284l.46.45c-.21.38-.41.77-.65,1.13A39.75,39.75,0,0,0,196,308.76c.19,6.26,1.68,11.82,6.57,16.13a8,8,0,0,0,6.79,2.15,105.78,105.78,0,0,0,15.73-3.72,72.27,72.27,0,0,0,15.22-6.48c4.31-2.48,6.64-5.9,6-11a2,2,0,0,0-1.68-1.84,7.24,7.24,0,0,1-3.41-1.59,11.33,11.33,0,0,0-6.72-3.59A85.59,85.59,0,0,1,222.64,295a15.34,15.34,0,0,1-8.93-7.85c-1.17-2.41-.82-6.21,1.2-7.73-1,4.32,1.32,6.51,4.68,8.51a11.36,11.36,0,0,0-.15-1.6,5.28,5.28,0,0,1,1-4.81,27.16,27.16,0,0,1,4.09-4,4.87,4.87,0,0,1,4.7-.73,34.26,34.26,0,0,1,3.92,1.61,26,26,0,0,0,11.62,2.81c2.75,0,5.5,0,8.25,0a24.86,24.86,0,0,0,9.94-2.3,32,32,0,0,1,5.72-2.22c3-.64,8.12,3.23,8.83,6.53a29.85,29.85,0,0,1,.28,4.57c3.13-1.74,5.31-4,4.81-8.1a4.34,4.34,0,0,1,1,1.45c1.25,3.11.28,5.79-1.55,8.35a17,17,0,0,1-8.27,5.84,66.57,66.57,0,0,1-13.9,4.1,3.7,3.7,0,0,0-2,1.18,9.57,9.57,0,0,1-5.65,3.59A1.79,1.79,0,0,0,251,305.2a10.35,10.35,0,0,0,.82,7c1.69,3.14,4.72,4.73,7.73,6.12a100,100,0,0,0,12.84,5.07c5.15,1.56,10.46,2.59,15.72,3.74a6.25,6.25,0,0,0,5.32-1.27A18.79,18.79,0,0,0,300.77,313a39.52,39.52,0,0,0-6.47-27.45,10.07,10.07,0,0,1-.57-1.14l.28-.23c2.62,1.69,5.44,3.12,7.4,6.18.17-.78.27-1.16.34-1.55a21,21,0,0,1,.75-3.76c1.42-3.6,2.86-7.21,4.56-10.69a41.57,41.57,0,0,1,11.14-13.76c2.63-2.18,5.13-4.68,6.26-8a17.23,17.23,0,0,0,.93-6.2,84.57,84.57,0,0,0-1.33-12.81,116.46,116.46,0,0,0-4-13.8c-.63-1.89-1-3.53-.05-5.37a6.86,6.86,0,0,0,.78-2.6,20.33,20.33,0,0,0-8-18.45,36.33,36.33,0,0,0-12.25-6.26,8.37,8.37,0,0,1-5.38-4.12,18.93,18.93,0,0,0-2-3,1.89,1.89,0,0,0-1.36-.69c-8.16.67-15.56-1.54-22.48-5.73a2.84,2.84,0,0,0-2-.42c-3.65,1.16-7.32,2.31-10.87,3.75-2.92,1.19-5.68,2.75-7.31,5.69-.4.72-.89.57-1.24-.05a11.76,11.76,0,0,0-4.59-4.23c-4.33-2.56-9.15-3.89-13.94-5.27a2.15,2.15,0,0,0-1.28.29c-3.32,1.5-6.56,3.21-10,4.5a26.2,26.2,0,0,1-11.36,1.52c-1.92-.15-3.16.29-4,2a11.31,11.31,0,0,1-1.67,2.66,9.86,9.86,0,0,1-2.91,2.38c-2.4,1.1-5,1.78-7.38,2.9-7.06,3.3-12.58,8.1-14.24,16.13-.59,2.84-.95,5.81.32,8.64a5.71,5.71,0,0,1,.16,5.37,22,22,0,0,0-1.78,4.73c-1.13,4.43-2.3,8.86-3.11,13.35a58.83,58.83,0,0,0-.62,9,14.57,14.57,0,0,0,5.2,11.9c1.68,1.46,3.31,3,4.89,4.57a42.35,42.35,0,0,1,7,8.92c3.06,5.39,5.92,10.85,6.67,17.14a1.61,1.61,0,0,0,.25.62Zm77.43-146.34.24.27c2-1,4-2,6-2.83a47,47,0,0,1,27.41-1.7,6.5,6.5,0,0,0,4.53-.26,24,24,0,0,1,5.09-1.56,43.5,43.5,0,0,1,13-.78,6.45,6.45,0,0,0,1.11-.11c-6.44-4.31-13.61-6.81-20.54-9.86h13.95a4,4,0,0,0-.35-.46,2.77,2.77,0,0,0-.53-.43,95.05,95.05,0,0,0-25.72-10.39c-4.18-1-8.41-1.8-12.64-2.52a22.09,22.09,0,0,0-6.81-.47c-6.82,1-12.34,4.62-17,9.58a76.47,76.47,0,0,0-11.3,16.48c-.8,1.5-1.57,3-2.36,4.52l-.45-.22a49.46,49.46,0,0,1,10.12-22.59c5.43-7,13.3-9.87,21.22-12.84a4.37,4.37,0,0,0-1.8-.72c-3.78-.37-7.56-.82-11.35-1a58.83,58.83,0,0,0-18.63,2c-2.18.62-4.38,1.45-6.73.87-2.62-.65-5.21-1.45-7.85-1.94-8.61-1.59-17.24-1.2-25.85.08a9.37,9.37,0,0,0-1.78.73c8.35,3,16.11,5.88,21.66,12.83s10.59,19.8,9.59,22.7c-.29-.45-.57-.86-.82-1.29-2.57-4.42-4.92-9-7.74-13.24-4-6-8.86-11.14-15.61-14-2.44-1-5.18-2.14-7.73-2a92.19,92.19,0,0,0-21.71,3.9,94.93,94.93,0,0,0-22.13,9.49,8.27,8.27,0,0,0-1.06.9,93.48,93.48,0,0,1,14,.06c-7,3-14.14,5.59-20.9,9.65a3.88,3.88,0,0,0,.74.27c.46,0,.92,0,1.37,0,5.77-.32,11.45.07,16.88,2.21a7.05,7.05,0,0,0,4.51.56,44.29,44.29,0,0,1,4.45-.82c9.49-1.39,18.6-.29,27.22,4.11l2.4,1.22.18-.33A33.87,33.87,0,0,0,200,126.27a6,6,0,0,1,2-.35,19.41,19.41,0,0,1,9.15,2.55,33.25,33.25,0,0,1,12.64,12.13c3.49,5.57,6.63,11.37,9.64,17.21a71,71,0,0,0,14.17,19.4c.76.72,1.25.71,1.92,0,1.59-1.71,3.24-3.36,4.81-5.08,4.23-4.66,7.19-10.13,10-15.68,3.61-7,7.07-14.15,12.29-20.23,4.1-4.77,8.91-8.38,15.08-9.93a13.54,13.54,0,0,1,5.22-.2c-3.13,1.6-6.19,3-9.06,4.68A28.82,28.82,0,0,0,280.39,137.63Zm-5.21,33.68a5.9,5.9,0,0,0,1.06.62,35.49,35.49,0,0,0,14,2.22c6.69-.29,13.06-2.22,19.52-3.69s12.9-2.38,19.4-.47c2,.58,3.85,1.46,5.77,2.21l-.16.61a20.09,20.09,0,0,1-2-.22,37.21,37.21,0,0,0-16.87.55c-3.77.95-7.49,2.07-11.23,3.1-1.89.52-3.81,1-5.7,1.48-1.57.42-1.69.69-1.11,2.22.86,2.29,2.9,3.11,5,3.73a31.73,31.73,0,0,0,11.17.94c5.82-.33,11.6-.42,17.33,1.07a36.32,36.32,0,0,1,15.48,7.91,12.2,12.2,0,0,1,.85.92l-.21.46c-10.32-4.24-21-6.55-32.51-5.54.55.64.84,1.06,1.21,1.41a41,41,0,0,1,9.59,14.08c1,2.4,1.73,4.93,2.89,7.25,1.79,3.6,4.73,6.26,7.93,8.62,5.91,4.36,12.47,7.62,18.93,11a180.79,180.79,0,0,1,21.78,13c8.57,6.22,16,13.5,21.34,22.75.14.24.5.35.83.57a2.72,2.72,0,0,0,.18-.6,220.93,220.93,0,0,0-2.29-25.85,175,175,0,0,0-5.58-24.46,100.92,100.92,0,0,0-10-22.39l-.81-1.33.22-.36a9.33,9.33,0,0,1,1.87.46c2.81,1.33,5.58,2.74,8.38,4.09a8.78,8.78,0,0,0,1.38.39c-3.12-12.4-21.6-42.67-27.92-45.73,0,.47,0,.86.06,1.25.18,2.73.32,5.47.59,8.2a4.47,4.47,0,0,0,.9,2.42c4.72,5.28,8.94,10.9,11.81,17.42.85,1.93,1.52,3.94,2.28,5.92l-.52.34c-5.52-5.7-10.11-12.24-15.59-18-1.69,1.16-1.82,2.3-.61,3.7s2.61,3.08,3.78,4.71c3.49,4.85,5.27,10.52,7.45,16a3.81,3.81,0,0,1,0,1.13c-3.49-2.57-6.32-5.55-10-7.48a73.61,73.61,0,0,1,15.59,24.27c3.64,9.17,5.25,18.59,3.81,28.57-8.78-17.68-23.48-26.14-42.58-27.95,7.42-3.17,14.68-2.11,21.83.72a37.1,37.1,0,0,1,17.32,14c-4.25-20.83-16.3-36.12-33.75-47.71a38.79,38.79,0,0,1,18.16,3.22,5.63,5.63,0,0,0-.42-1c-2.14-2.61-4-5.47-6.48-7.76C351.27,167.6,342.43,163.7,333,161l-5.9-1.66c4.1-2,8.39-2.24,12.18-4.14a28.26,28.26,0,0,0-6.66-1.62c-8.49-.72-16.78.61-25,2.48a65.56,65.56,0,0,0-19.87,8.31C283.68,166.84,279.43,169,275.18,171.31ZM149.76,195l-.47-.81a6.46,6.46,0,0,0,1.18-.67c6.18-5.45,13.56-8.07,21.59-8.87,3.62-.36,7.32.12,11,0a92,92,0,0,0,11-.92,6.29,6.29,0,0,0,5.38-4.15c.28-.83.11-1.36-.71-1.6s-1.7-.35-2.54-.58c-6-1.61-12.05-3.37-18.14-4.81a31.61,31.61,0,0,0-13.51,0c-.8.16-1.62.23-2.43.34a1.32,1.32,0,0,1,.65-.85c6.45-3.49,13.33-3.73,20.31-2.45,5,.92,10,2.19,15,3.33,6.8,1.56,13.59,1.91,20.35-.19,1.28-.4,2.52-.94,3.78-1.42a7.07,7.07,0,0,0-1.79-1c-3.87-2.06-7.7-4.18-11.58-6.21-3.72-1.94-7.34-4.22-11.26-5.59a126.53,126.53,0,0,0-14.85-3.78,61.33,61.33,0,0,0-18.86-1.09,47.48,47.48,0,0,0-6,1.34v.59c3.83,1.51,8.1,1.8,12,3.7a3.2,3.2,0,0,1-.51.34,85.84,85.84,0,0,0-18,6.22A47.4,47.4,0,0,0,134,179.36c-.82,1.06-1.52,2.2-2.44,3.53,3.29-.92,6.16-1.92,9.12-2.51s5.94-1.11,9.11-.33a80.51,80.51,0,0,0-21.86,20.41c-6,8.13-10.23,17.06-11.79,27.15a3.17,3.17,0,0,0,1-.93c8.22-11.36,19.3-16.58,33.3-15.38a28.37,28.37,0,0,1,5,1.42c-20.13.88-31.22,10.67-43.14,28.17C110.64,220,118.38,203,132,188c-3.61,2-6.44,5-9.9,7.31a3.67,3.67,0,0,1,.2-1.46c.34-.95.74-1.87,1.09-2.82,2.3-6.27,5.08-12.28,9.8-17.14a2.21,2.21,0,0,0,.45-3.09c-.47-.8-.83-1-1.51-.22-1,1.23-2.12,2.4-3.16,3.62-3.6,4.21-7.19,8.42-10.79,12.62a9.35,9.35,0,0,1-1.22,1l-.34-.29c.78-2,1.47-4,2.34-6a63.62,63.62,0,0,1,11.61-17.06,4,4,0,0,0,1.09-2.82c.07-2.69.34-5.38.52-8.07,0-.38,0-.77,0-1.15l-.36-.13c-12.15,13.36-21.63,28.34-27.68,45.93a15.41,15.41,0,0,0,1.71-.56c2.71-1.33,5.39-2.71,8.11-4a8.76,8.76,0,0,1,2-.44l.19.39c-.24.42-.48.84-.71,1.26-1.71,3.18-3.55,6.29-5.08,9.55A110.82,110.82,0,0,0,104,222.1a147.48,147.48,0,0,0-4.48,22c-.89,7.4-1.26,14.87-1.86,22.31,0,.52,0,1-.07,1.56l.46.2c.38-.55.78-1.09,1.13-1.66,6.91-11.29,16.64-19.66,27.81-26.39,7.44-4.48,15.25-8.33,22.78-12.66a138.75,138.75,0,0,0,12.42-8,20.67,20.67,0,0,0,7.95-10.9,41.58,41.58,0,0,1,11-17.81,14.26,14.26,0,0,0,1-1.33C170.62,188.44,160,190.76,149.76,195ZM268.18,360.3c-.19-.49-.3-.73-.39-1-.45-1.38-.61-1.42-1.92-.71a7.07,7.07,0,0,1-1.87.83c-1.17.23-1,.77-.71,1.66a21.41,21.41,0,0,1,1.58,5.21c.79,8.51-2.74,15-9.75,19.68a6,6,0,0,1-.93.41c0-.27-.1-.38-.06-.44.28-.42.56-.84.87-1.23a25.74,25.74,0,0,0,5.63-11.59,17.7,17.7,0,0,0-1-10.24,3.08,3.08,0,0,0-3.46-2.11,7.63,7.63,0,0,0-6.6,4c-.87,1.57-1.17,1.55-2,0a7.11,7.11,0,0,0-4.32-3.57c-3.11-.84-5-.85-6.11,2.39a18,18,0,0,0-.9,4.28A21.52,21.52,0,0,0,240.15,382c.92,1.39,1.94,2.73,2.91,4.09l-.26.31a14.75,14.75,0,0,1-4.92-3.72c-6-6.78-7.7-14.34-3.69-22.79a19.24,19.24,0,0,1-3-1.33c-1.06-.71-1.56-.45-1.89.66-.09.29-.23.56-.44,1a7.76,7.76,0,0,1-1-.87c-2.19-2.87-5.22-4.34-8.58-5.33-2.54-.75-5.09-1.47-7.6-2.33-1.7-.59-2-.6-3.13.84a15.79,15.79,0,0,0-3,8.4c0,.45-.17.89-.26,1.34h-.43c-.24-.94-.53-1.87-.7-2.82-.7-4.07-.64-8,1.82-11.62a2,2,0,0,0-.09-1.67c-.73-1.37-1.68-2.62-2.41-4-1.48-2.77-2.64-5.65-2.28-8.9.07-.68.28-1.34.51-2.37a11.32,11.32,0,0,0-1.12,1,28.71,28.71,0,0,0-7,16c-.93,9.63,1.93,18.26,7.26,26.16,1.18,1.75,2.57,3.37,3.86,5l.49-.09c.84-2.71,1.11-5.65,3.12-7.89s4.48-3.45,7.3-5a10.8,10.8,0,0,1-.28,1.55,14.23,14.23,0,0,0-.68,8.59c1.29,5.34,4.41,9.1,9.5,10.85,4.78,1.64,9.75,2.74,14.64,4,3.41.91,6.59,2.22,9,5,.59.68.94.51,1.54,0a21.42,21.42,0,0,1,3.52-2.8c3.27-2,7-2.56,10.67-3.4,3.83-.89,7.67-1.7,11.22-3.49a15,15,0,0,0,7.72-16c-.28-1.26-.63-2.51-1-3.77l.27-.27c.8.46,1.58,1,2.4,1.36a12.32,12.32,0,0,1,7.15,9.6,12.33,12.33,0,0,0,.74,2.06c6.7-7.67,10.86-16,11.51-25.93a28.82,28.82,0,0,0-6.77-21,16.41,16.41,0,0,0-1.29-1.22c0,.49-.09.69,0,.83a8.54,8.54,0,0,1,0,5.65,26.62,26.62,0,0,1-4.14,8.31,1.66,1.66,0,0,0-.12,2.21c2.41,3.53,2.44,7.47,1.7,11.49-.17.91-.43,1.79-.66,2.69h-.4c-.1-.45-.23-.89-.28-1.35a16.57,16.57,0,0,0-3.16-8.51,2,2,0,0,0-2.45-.94c-2.78.91-5.58,1.73-8.37,2.6-3.28,1-6.3,2.47-8.43,5.34A6.83,6.83,0,0,1,268.18,360.3Zm-102.73-107-.45-.06c-.35.41-.67.84-1,1.22-2.3,2.33-4.35,5-7,6.88-4.32,3-9,5.56-13.58,8.24-3.82,2.25-7.84,4.19-11.49,6.68-5.21,3.57-8.39,8.8-10.71,14.61A39,39,0,0,0,119.53,314a108.82,108.82,0,0,0,4.56,14.93,88.5,88.5,0,0,0,18.25,29.59c1.07,1.15,2.23,2.22,3.63,3.61a5.5,5.5,0,0,0,0-1.05c-.94-3-2.14-6-2.8-9.15a38.4,38.4,0,0,1,.39-16.49,58.36,58.36,0,0,1,4.62-12.87c3.58-7.37,8-14.08,14.75-19A36.77,36.77,0,0,0,176,286.17c1.84-5,2.54-10.07,1.11-15.22a44.5,44.5,0,0,0-3.21-8,29.58,29.58,0,0,0-3.29-4.38l-.54.16a14.06,14.06,0,0,0-.56,1.57c-.27,1.16-.36,2.37-.75,3.49a26.14,26.14,0,0,1-10.94,14c-2,1.27-4.12,2.39-6,3.78-10.62,7.69-16.24,18-16,31.24,0,.78-.07,1.56-.11,2.34a28.68,28.68,0,0,1-.2-17c2.89-10,9.1-17.47,18-22.74,7.77-4.58,11.58-11.55,12.1-20.43A9.94,9.94,0,0,0,165.46,253.31ZM351.05,361.54l.32.17c.27-.22.56-.43.81-.67a82.86,82.86,0,0,0,15.4-20.4,100.9,100.9,0,0,0,9.05-22.6c2.31-8.55,2.75-17.06-.15-25.55-2.61-7.63-6.9-14-14.08-18.1-5.33-3-10.78-5.84-16.11-8.86a47,47,0,0,1-12.52-10.1c-.58-.67-1.22-1.3-2.12-2.24a13.07,13.07,0,0,0-.11,2.09c.22,1.63.47,3.26.78,4.87A21.66,21.66,0,0,0,342,274.37c3.76,2.52,7.64,4.84,10.74,8.24,7.33,8,10.94,17.32,9.83,28.25-.15,1.47-.56,2.92-.85,4.38l-.44,0c0-1,0-2,0-3a34.92,34.92,0,0,0-4.6-18.14,39.11,39.11,0,0,0-15.26-14.82c-7.59-4.31-12.68-10.48-14-19.36a6.42,6.42,0,0,0-.74-1.54l-.89,1.19c-.28.37-.54.74-.84,1.09a24,24,0,0,0-5.43,20A35.08,35.08,0,0,0,332,301.85c2.87,2.42,6,4.63,8.4,7.46a59.78,59.78,0,0,1,13.6,29,37.05,37.05,0,0,1-1.44,19C352.1,358.68,351.57,360.11,351.05,361.54Zm-80.4-8.18c2.62-1.2,5-2.53,7.58-3.43,4.93-1.73,8.77-4.59,11.19-9.31,1.39-2.71,2-5.34.59-8.24a2.64,2.64,0,0,0-3-1.73c-7.72.54-15.08-1.2-22.3-3.76a76.24,76.24,0,0,1-13.46-6.71,5.2,5.2,0,0,0-5.48,0c-3.29,1.79-6.5,3.75-9.92,5.25-8.43,3.71-17.22,5.85-26.54,5.25a2.18,2.18,0,0,0-1.67.82c-1.1,1.72-1.87,3.62-1.2,5.71a23.19,23.19,0,0,0,1.7,4.15,16,16,0,0,0,8.1,7.46c3,1.22,6,2.68,8.9,4.19.89.46,1.38.58,1.85-.32s.92-.77,1.69-.21a10.74,10.74,0,0,0,3.26,1.65c2.9.81,5.87,1.37,8.78,2.16,2.59.7,5.25,1.32,7.23,3.39a1.18,1.18,0,0,0,1.15,0c2.22-2.13,5.06-2.83,7.91-3.52,2.62-.63,5.27-1.17,7.85-2a39.43,39.43,0,0,0,4.74-2.15Zm61.72,18.89.6.3c2-2.82,4.14-5.56,6-8.47a47.66,47.66,0,0,0,7.1-19.29,44.77,44.77,0,0,0-2.65-23.2c-2.14-5.29-4.95-10.07-9.7-13.52a54.26,54.26,0,0,1-11-10.22c-5.7-7.24-9.38-15.15-8.75-24.62a6.08,6.08,0,0,0-.14-1.14l-.4-.08a12.43,12.43,0,0,0-.91,2.44,82.43,82.43,0,0,0-1,8.3,30.49,30.49,0,0,0,2.38,14.5,74.51,74.51,0,0,0,5.4,8.86c1.71,2.64,3.55,5.2,5.26,7.84a6.6,6.6,0,0,1,.43,2c-3.59-3.44-7-6.5-10.14-9.75a26.34,26.34,0,0,1-7.25-13.62c-.23-1.2-.53-2.39-.8-3.59a6.11,6.11,0,0,0-.94,2.22c-1.92,10-1,19.61,4.35,28.5,2.65,4.44,5.51,8.75,8.24,13.13,5.49,8.81,7.79,18.26,5.9,28.61a53.66,53.66,0,0,1-9.68,23.18,15.23,15.23,0,0,0-.84,1.39.78.78,0,0,0,.7,0,41.58,41.58,0,0,0,13.24-13.87A72.79,72.79,0,0,0,336,350.47a35,35,0,0,0-.27-15.12c-.13-.62-.33-1.22-.5-1.83a1.69,1.69,0,0,1,1.06.79,24,24,0,0,1,2.91,8.66A37.31,37.31,0,0,1,338,356.42a74.45,74.45,0,0,1-4.77,13.68C332.93,370.79,332.67,371.53,332.37,372.24Zm-167.73,0a2.56,2.56,0,0,0-.13-.78,68.94,68.94,0,0,1-5.62-15.86c-1.47-6-1.9-12,.34-18,.57-1.51,1.06-3.12,2.44-4.19a34.74,34.74,0,0,1-.63,3.63,32,32,0,0,0,.59,15.77c1.11,3.81,2.38,7.59,3.84,11.27,3.25,8.19,8.11,15.24,15.29,20.53.77.57,1.59,1.06,2.38,1.59l.29-.31c-.52-.71-1.05-1.41-1.56-2.14A55.55,55.55,0,0,1,172.76,361a36.14,36.14,0,0,1,3.5-23.46c2.42-4.55,5.24-8.9,8-13.27,2.62-4.15,5.12-8.35,6.49-13.1A40.69,40.69,0,0,0,192,296c-.22-2.38-.79-4.73-1.2-7.1l-.48,0c-.09.38-.2.75-.25,1.14-.77,4.92-2.24,9.63-5.57,13.38-3.81,4.28-8,8.25-12,12.36l-.33-.09a5.05,5.05,0,0,1,.37-1.71c1.76-2.71,3.45-5.5,5.45-8a33.28,33.28,0,0,0,7.43-17.55,54.18,54.18,0,0,0-.46-12.33,24.23,24.23,0,0,0-1.26-4.15l-.57.11c0,.52,0,1,0,1.56-.28,3.09-.18,6.29-.95,9.25-2.2,8.51-7.21,15.33-13.72,21.08-2.74,2.42-5.91,4.4-8.41,7-5.36,5.62-7.93,12.71-9,20.24a47.84,47.84,0,0,0,6.07,31.21A41.82,41.82,0,0,0,164.63,372.29Zm217.22-53,.37.14a4.51,4.51,0,0,0,.42-.64c2.46-5.5,5.14-10.93,7.3-16.55a45.89,45.89,0,0,0,2.8-11.14A45,45,0,0,0,389.54,269,46.51,46.51,0,0,0,370,245.69c-7.78-4.63-15.85-8.75-23.79-13.11a75.3,75.3,0,0,1-13.49-8.86c-.52-.46-1.11-.85-1.65-1.26-.16.2-.21.23-.22.27a2.12,2.12,0,0,0,0,.4,21.76,21.76,0,0,0,7.54,15.37c4.7,4.18,10.29,6.93,15.81,9.79,4.72,2.44,9.45,4.84,13.62,8.18a25.63,25.63,0,0,1,8.43,11c.43,1.13.66,2.34,1,3.51l-.5.16c-.44-.83-.86-1.66-1.31-2.49a25.31,25.31,0,0,0-10.64-10c-5.38-2.92-10.94-5.5-16.42-8.23-5.24-2.62-10.46-5.29-14.56-9.64a5.12,5.12,0,0,0-1.08-.59,27.47,27.47,0,0,0,4.74,9.17,38.67,38.67,0,0,0,7.25,7.23c5.3,3.89,10.89,7.39,16.41,11,4.39,2.85,8.73,5.76,12,9.94a50.82,50.82,0,0,1,9.05,18.92,42.44,42.44,0,0,1,.67,18C382.47,316,382.16,317.63,381.86,319.28Zm-261.44-48-.33-.13a7.29,7.29,0,0,1,.11-1.6,23.58,23.58,0,0,1,4.83-9c4.23-4.87,9.73-7.94,15.29-11,5.25-2.87,10.56-5.67,15.56-8.92,5.85-3.81,9.58-9.21,10.31-16.38.06-.55.1-1.1.18-1.94a7.49,7.49,0,0,0-1.07.61,73.64,73.64,0,0,1-14.21,9.53c-7.18,3.92-14.43,7.72-21.59,11.69a48.75,48.75,0,0,0-20.2,20.9,48,48,0,0,0-5,17.16,36.88,36.88,0,0,0,.69,13.25,105.4,105.4,0,0,0,7.58,19.68c.71,1.43,1.49,2.82,2.24,4.23l.37-.12c-.07-.61-.1-1.22-.21-1.82-.33-1.79-.81-3.57-1-5.38a45.05,45.05,0,0,1,3.39-23c2.33-5.51,5-10.95,9.65-14.82a129.58,129.58,0,0,1,13.42-9.48,115.93,115.93,0,0,0,15.24-10.91,31.64,31.64,0,0,0,6.23-8.32c.92-1.63,1.67-3.36,2.5-5l-.35-.21a7.93,7.93,0,0,0-1,.69,49.28,49.28,0,0,1-11.71,8c-5.59,2.8-11.31,5.36-16.84,8.27C128.44,260.53,123.07,264.58,120.41,271.32ZM138.66,157l0-.47c6-2.23,11.92-4.54,18.21-5.79,1.35-.27,2.89-.35,3.31-2a38.3,38.3,0,0,0,.87-5.24c0-.29-.54-.91-.86-.93a23,23,0,0,0-9.89,1.06A39.66,39.66,0,0,0,146,146a4.05,4.05,0,0,1,.56-1.18,14.08,14.08,0,0,1,2.58-2.22A29,29,0,0,1,163.81,139a1.07,1.07,0,0,1,1.23,1.27c-.1,2.55-.1,5.12-.38,7.66-.15,1.33.19,1.67,1.41,1.5.45-.06.92,0,1.37-.05A71.56,71.56,0,0,1,191.22,152a12.13,12.13,0,0,0,1.77.2c-1.69-2.58-3-5-4.65-7-5.85-7.29-13.8-10.3-22.89-10.59a42.84,42.84,0,0,0-19.83,4.09c-2.82,1.33-5.65,2.84-6.87,6-2.44,6.27-3.73,12.74-2.88,19.49a47.88,47.88,0,0,0,1.46,5.66,65.37,65.37,0,0,1,17.55-10.33l-.1-.59ZM359.8,169.76a47.75,47.75,0,0,0,1.42-5.55,40.77,40.77,0,0,0-1.44-15.63c-1.09-4.15-3.09-7.48-7.1-9.37A47.57,47.57,0,0,0,342,135.53a39.37,39.37,0,0,0-20.2.71c-8.2,2.59-13.56,8.26-17.41,16,.73-.13,1.34-.19,1.93-.34,1.29-.32,2.55-.72,3.85-1a75.73,75.73,0,0,1,21-1.45c1.13.08,1.39-.2,1.28-1.36-.25-2.54-.32-5.11-.43-7.66,0-.93.37-1.43,1.4-1.42a29,29,0,0,1,14.37,3.52c1.7,1,3.18,2.16,3.52,4.21a19.77,19.77,0,0,0-2.71-2.23c-2.91-1.66-6.16-1.93-9.43-1.95-3.5,0-3.65.16-3.07,3.64.49,3,1.34,3.88,3.44,4.47,5.06,1.41,10.08,2.93,15.1,4.47,1.31.4,2.55,1,3.82,1.5l0,.36c-5.34.94-10.85.76-16.15,2.35A72.34,72.34,0,0,1,359.8,169.76Zm-74,205.36a24.14,24.14,0,0,1-2.32,11.72c-1.75,3.57-3.83,7-5.85,10.58a9.89,9.89,0,0,0,1.5-.24c1.17-.38,2.33-.8,3.49-1.23a43.11,43.11,0,0,0,14.85-9.13c4.89-4.63,8.4-10.22,11.49-16.12,1-2,2.06-4,3.09-6l.48.1a188.09,188.09,0,0,1-1.86,19.2,62.48,62.48,0,0,0,3.53-7.13,58.61,58.61,0,0,0,4.35-15.54c1.17-9.41-1.32-17.91-6.34-25.84-3.08-4.85-5.93-9.85-8.91-14.78a2.42,2.42,0,0,0-.6-.55c-1.17,2.14-2.16,4.25-3.45,6.15-.63.94-.64,1.41.08,2.19,8.45,9.22,10.8,20.09,8.08,32-2.38,10.45-8.14,18.89-16.6,25.48-.87.68-1.83,1.26-2.74,1.88l-.36-.19C289.13,383.22,289.1,379,285.84,375.12ZM209,387.75a2,2,0,0,1-.64-.25,93.47,93.47,0,0,1-8-6.9,42.5,42.5,0,0,1-11.24-22.49,35,35,0,0,1,2-19.53,33.36,33.36,0,0,1,6.62-10.18,1.28,1.28,0,0,0,.09-2,29.7,29.7,0,0,1-2.4-4.12,25.46,25.46,0,0,1-1-2.43,9.5,9.5,0,0,0-.82,1c-2.21,3.73-4.3,7.55-6.64,11.19-3.62,5.64-7,11.34-8.24,18.08a37.36,37.36,0,0,0,.62,16.21c1,3.88,2.42,7.67,3.81,11.43.81,2.18,1.94,4.23,2.93,6.34l.48-.15a107.53,107.53,0,0,1-1.93-19.17,1,1,0,0,1,.57.48c1.58,3,3.13,6,4.74,9,5.77,10.65,14.16,18.28,25.72,22.23,1.19.41,2.42.68,3.64,1l.2-.41c-4.8-6.56-8.74-13.45-8.4-22-1.53,1.85-2.67,3.75-2.65,6S208.88,385.5,209,387.75ZM188.22,138.61c.54.62.84.93,1.11,1.27,1.7,2.2,3.43,4.37,5.09,6.6,1.31,1.76,2.4,3.69,3.82,5.35a23.73,23.73,0,0,0,4.64,4.41c3,2,6.21,3.48,9.21,5.38a34.9,34.9,0,0,0,9.28,4.31c3,.83,6,1.72,8.95,2.57,1.23.35,2.47.68,3.7,1l.22-.33c-.17-.34-.32-.7-.5-1-1.05-1.87-2.2-3.69-3.15-5.62a51.53,51.53,0,0,0-7.5-11.9,36.62,36.62,0,0,0-18.5-11.41,40.49,40.49,0,0,0-13.5-.89C190.24,138.4,189.41,138.49,188.22,138.61Zm74.73,31c.84-.22,1.4-.35,2-.51,2.1-.61,4.2-1.25,6.31-1.84,4.94-1.37,9.81-2.83,14.1-5.83,2.35-1.65,4.94-2.94,7.42-4.39a11.61,11.61,0,0,0,2.77-1.71,79,79,0,0,0,6-7.1c2.14-3,3.8-6.26,6.68-8.64.2-.16.22-.54.34-.86a2.75,2.75,0,0,0-.59-.23c-9-.93-17.53.11-25.37,4.93a39.31,39.31,0,0,0-13,13.2c-2.36,3.85-4.34,7.93-6.47,11.92A4.59,4.59,0,0,0,262.95,169.58Zm-2.3,124.58-.12-.31a30,30,0,0,1-3.26-.81c-1.45-.53-1.69-1.7-.7-2.91a8.52,8.52,0,0,1,4.63-2.73c2.84-.78,5.64-.27,8.43.27,1.11.21,2.2.51,3.09-.44s.11-1.94-.17-2.83c-1.07-3.33-3.32-4.68-6.33-3.75a14,14,0,0,0-3.16,1.61,15.11,15.11,0,0,1-8.86,2.37,93.68,93.68,0,0,0-9.89,0,18.58,18.58,0,0,1-11.43-3,7.8,7.8,0,0,0-4.1-1.19c-2.69.07-3.62,2.3-4.36,4.47-.81,2.37.15,3.36,2.64,2.87a36.12,36.12,0,0,1,4.33-.71c3.19-.23,6.24.26,8.67,2.56,1.76,1.67,1.35,3.1-1,3.74a24.06,24.06,0,0,1-2.51.42,19.26,19.26,0,0,0,8.55,3.88c1.33.21,1.91-.61,2.1-1.81.26-1.72.5-3.44.78-5.15a8.64,8.64,0,0,1,.37-1.19h.41a14.38,14.38,0,0,1,.4,1.45c.27,1.58.48,3.17.76,4.74.32,1.79,1.15,2.32,2.92,1.83a28.77,28.77,0,0,0,3.76-1.28C258,295.64,259.3,294.87,260.65,294.17Z" transform="translate(-6 -6)"/><path id="oeil_gauche" data-name="oeil gauche" class="cls-2" d="M280.33,239c-.48,2.63-.95,5.17-1.39,7.72-.09.54,0,1.11-.16,1.64A15.07,15.07,0,0,0,281.89,262a17.4,17.4,0,0,1,2.17,3.86c-4.68-2.45-8.48-5.48-9.48-11.14-.78-4.42-.39-8.75,0-13.12a24.66,24.66,0,0,0,.05-3.16c0-.27-.29-.75-.42-.74a1.69,1.69,0,0,0-.87.45,2.58,2.58,0,0,1-1.16.74c.13-1.76.29-3.52.4-5.28.21-3.3-.74-4.6-3.94-5.35-3.59-.83-6.72-2.36-8.73-5.63a9.66,9.66,0,0,1-1.26-5.8,2,2,0,0,1,.18-.65c0-.11.19-.18.31-.28,1,.9,2,1.83,3.11,2.67a16.56,16.56,0,0,0,7.46,3.28c2.21.37,4-.77,5.62-2.06s3.07-2.46,4.66-3.62a17.22,17.22,0,0,1,10.88-3.1,36.81,36.81,0,0,1,24.87,9.69c.39.36.72.78,1.37,1.49-.9,0-1.41,0-1.91,0-2.7-.24-5.31-.08-7.65,1.5a6,6,0,0,0-2.84,4.33,14.2,14.2,0,0,1-6.63,10.57c-4.25,2.71-8.81,3.65-13.57,1.52C283,241.43,281.79,240.09,280.33,239Zm21.36-10.16a10.35,10.35,0,0,0-10.2-10.67c-7.65,0-11.61,4.34-11.7,10.6a11,11,0,1,0,21.91.07Z" transform="translate(-6 -6)"/><path id="oeil_droit" data-name="oeil droit" class="cls-2" d="M224.69,238.74a2.56,2.56,0,0,1-.65-.16c-.4-.3-.79-.62-1.18-.94a5.1,5.1,0,0,0-.58,1.72c.11,2.37.3,4.75.57,7.11a22,22,0,0,1-1.88,12.4c-1.65,3.43-4.67,5.22-7.66,7.11l-.32-.2c.23-.48.43-1,.7-1.43,1.43-2.38,3-4.7,4.27-7.16a10.61,10.61,0,0,0,.8-6.59c-.44-2.84-1.17-5.64-1.64-8.48a20.11,20.11,0,0,1,0-3.33c-1.23.92-2.52,2-3.95,2.9a9.35,9.35,0,0,1-7.57,1.27,27.46,27.46,0,0,1-5.67-1.83,13.72,13.72,0,0,1-7.49-10.85c-.4-3.23-3.39-5.56-6.46-6a37.47,37.47,0,0,0-4.38-.1c-.39,0-.78,0-1.56.06a13.35,13.35,0,0,1,1-1.27,35.12,35.12,0,0,1,15-8.46,38.08,38.08,0,0,1,11.65-1.47c4.6.11,8.38,2,11.82,4.8,1,.78,1.94,1.53,2.89,2.32a7,7,0,0,0,7.48,1,19.44,19.44,0,0,0,8.18-5.65,7.3,7.3,0,0,1,0,5.17c-1.32,3.79-4.18,6-8,7.05-.83.24-1.69.41-2.53.64a4,4,0,0,0-3.07,4.06c0,1.56.18,3.11.26,4.66C224.72,237.64,224.69,238.15,224.69,238.74ZM206,218.13a10.2,10.2,0,0,0-10.58,10.39c0,7.24,4.91,11,11,11.36,5.37.27,10.9-4.63,10.86-10.87S213.58,218.42,206,218.13Z" transform="translate(-6 -6)"/><path id="sourcil_droit" data-name="sourcil droit" class="cls-2" d="M295.55,187.76a32,32,0,0,1-5.48,2.1c-2.95.57-6,.71-9,1-4,.39-8.06.46-12,1.22a14.68,14.68,0,0,0-10.22,7.62,3.93,3.93,0,0,1-.79.77,3.21,3.21,0,0,1-.54-1c-.44-3.61,1.21-6.36,3.7-8.73a14.29,14.29,0,0,1,9.78-4.11c5.11-.06,10.22.5,15.33.69,2.5.09,5-.06,7.51-.1h1.53Z" transform="translate(-6 -6)"/><path id="sourcil_gauche" data-name="sourcil gauche" class="cls-2" d="M201.64,187.17a5.12,5.12,0,0,1,1.05,0c4.58,1,9.11,0,13.65-.39,4.29-.39,8.59-.79,12.82.39,4.85,1.35,8.59,4.06,10.17,9a11.42,11.42,0,0,1,.18,3.53c0,.26-.4.52-.61.78a3.16,3.16,0,0,1-.61-.63A14.28,14.28,0,0,0,227.5,192c-5.64-.82-11.38-1-17.06-1.47A15.75,15.75,0,0,1,201.64,187.17Z" transform="translate(-6 -6)"/><path id="pupille_gauche" data-name="pupille gauche" class="cls-2" d="M206.65,223.5a5,5,0,1,1-.11,10,5,5,0,0,1-4.92-4.87A4.93,4.93,0,0,1,206.65,223.5Z" transform="translate(-6 -6)"/><path id="pupille_droite" data-name="pupille droite" class="cls-2" d="M290.83,224.16a5,5,0,1,1-.11,10,5,5,0,0,1-4.92-4.87A4.93,4.93,0,0,1,290.83,224.16Z" transform="translate(-6 -6)"/></g><g id="texte"><path class="cls-3" d="M58.89,191.85a1.83,1.83,0,0,1-1.4.24c-1.27-.35-3.1-.57-4.28-1-.63-.21-1.43-.85-1.22-1.47s1.12-.71,1.82-.73a8.78,8.78,0,0,0,3.47-.76,5.78,5.78,0,0,0,2.77-3.45,4.19,4.19,0,0,0-2.55-5.51c-2.22-.73-4,.57-5.42,1.89-1.64,1.55-2.83,2.86-4.44,4.29-2.21,1.93-4.92,3.25-7.94,2.26a7.56,7.56,0,0,1-4.83-4.93,13.31,13.31,0,0,1,.31-7.67,20.49,20.49,0,0,1,3.37-6.23A1.94,1.94,0,0,1,40,168c1,.13,4.81.76,5.32.92s1.2.77,1,1.4-.95.76-4.11,1.56a7.12,7.12,0,0,0-5,4.11c-1.09,3.31.52,5.54,2.57,6.22,1.6.52,3,.18,5-1.58l4.71-4.33a8.22,8.22,0,0,1,8.12-2A6.94,6.94,0,0,1,62.41,180a12,12,0,0,1-.46,6A25.67,25.67,0,0,1,58.89,191.85Z" transform="translate(-6 -6)"/><path class="cls-3" d="M38,234.7A13.94,13.94,0,0,1,27.59,228a16.83,16.83,0,0,1-2.2-9.59,15.73,15.73,0,0,1,5.84-10.53,14.35,14.35,0,0,1,10.29-2.54,13.85,13.85,0,0,1,10.67,7.18,14.94,14.94,0,0,1,1.87,9.36A14.3,14.3,0,0,1,38,234.7ZM50.13,215c-1.51-1.94-4.75-3.19-8.8-3.69a15.38,15.38,0,0,0-9.42,1.86,9,9,0,0,0-4.1,6.27,7.12,7.12,0,0,0,1.13,5c1.32,2,5,3.7,9.4,4.24,5.48.68,12.72-1.09,13.59-8.18A8,8,0,0,0,50.13,215Z" transform="translate(-6 -6)"/><path class="cls-3" d="M26.89,276.38a22.58,22.58,0,0,1-2.08-8.19c-.53-5.74,1.4-10.26,3.49-12.44a14.24,14.24,0,0,1,9.53-4.5,13.47,13.47,0,0,1,11.06,4.17c3.12,3.15,4.46,7.85,4.75,11a35.61,35.61,0,0,1-.56,8.31,1.84,1.84,0,0,1-1.06.88A39.21,39.21,0,0,1,47.08,277c-1.08.1-1.66-.39-1.72-1,0-.42.52-1,1.26-1.38a11.79,11.79,0,0,0,3.31-2.72,9.69,9.69,0,0,0,1.34-6.33,8.62,8.62,0,0,0-3.65-6.24c-2.27-1.72-5.53-2.44-9.3-2.1a12.79,12.79,0,0,0-7.81,3.56,11.93,11.93,0,0,0-3.15,8.37,9.89,9.89,0,0,0,2.15,5,17.18,17.18,0,0,0,3.82,2.18,2.68,2.68,0,0,1,1.37,1.8c0,.54-.84.74-1.64.51a21.37,21.37,0,0,0-4.78-.82C27.63,277.82,27.31,277.06,26.89,276.38Z" transform="translate(-6 -6)"/><path class="cls-3" d="M32,303.48c-.41-1.57-1.68-5.21-1.92-6.14-.29-1.1.17-1.72.58-1.83.58-.15,1.07.28,1.47,1.1,1.42,3,2.53,3.25,4.34,2.83s6.29-1.34,8.67-2c5.11-1.34,6.47-1.83,7.63-2.13,1.38-.42,2-1,1.95-3.93,0-.8.07-1.63.76-1.82.29-.08,1.1.39,1.36,1.38.43,1.63,1.15,4.85,1.53,6.3.31,1.16,1.37,4,1.6,4.92.29,1.1-.07,1.63-.42,1.72-.7.18-1.45-.55-1.91-1.36-1-1.84-2.07-2.68-2.71-2.52l-4.7,1.24c-8,2.11-11,3.07-12.35,3.56-2,1-2.44,1.57-2.37,4,0,1-.35,1.52-.58,1.58a1.53,1.53,0,0,1-1.65-1.3C32.78,307.06,32.39,304.87,32,303.48Z" transform="translate(-6 -6)"/><path class="cls-3" d="M61.86,322.75c1.45-.73,1.52-1.88,1.07-4.18a1.69,1.69,0,0,1,.32-1.47c.66-.3,1.52.3,2,1.33.62,1.37,1.3,3.3,2.27,5.43,4.68,10.28,5.61,11.89,6.09,12.67.15.19-.19.88-.52,1A26.68,26.68,0,0,1,68.46,339c-.62.09-1.5-.11-1.7-.55-.12-.27-.3-.66.46-1.46,1.37-1.35,2.27-2.42,2-3.21-.61-1.77-1.59-3.63-2.88-6.47a1.56,1.56,0,0,0-.82-.35,59.75,59.75,0,0,0-7.35,3.28c-.36.23-.61.54-.51.76l1.27,2.79c1.07,2.35,2,2.46,3.43,2.46A1.85,1.85,0,0,1,64,337c.2.44-.42,1.11-.91,1.34-.71.32-2.26.83-3.57,1.43-1.69.77-2.38,1.15-2.76,1.32s-1.33.41-1.63-.25c-.2-.44-.09-1.08.69-1.83,1-1,1.43-1.51,1-2.89A42.36,42.36,0,0,0,55.12,332a1,1,0,0,0-.67-.16A42.58,42.58,0,0,0,47.89,335a2.37,2.37,0,0,0-.82,1.1c-.26,1.17.63,4,.78,4.33a37,37,0,0,0,2,3.78c.82,1.21,2.25,1.62,4.25,2.09,1.25.29,2.11.29,2.34.79s-.15,1.12-.86,1.45a16.58,16.58,0,0,1-5.43.82,2.2,2.2,0,0,1-1.77-1.44c-.25-.55-1.79-4.66-5.5-12.8-.77-1.69-2.51-4.79-3-5.89-.57-1.26-.62-2.09-.13-2.32s1.19-.14,2.22,1.1c2,2.44,3.11,2.34,5.87,1.16,2-.87,4.15-1.76,6.94-3C59.23,324.08,60.24,323.55,61.86,322.75ZM82,331.42a3.53,3.53,0,0,1-2.21-.51,49.35,49.35,0,0,1-7.48-4.12,4.75,4.75,0,0,1-1.71-1.86c-.35-.76.82-1.23,2.08-1.08.67.16,6.12,1.57,8.62,2.28a3.85,3.85,0,0,1,2.26,1.35A3.51,3.51,0,0,1,82,331.42Z" transform="translate(-6 -6)"/><path class="cls-3" d="M89.7,373.59c2-2.73,1.85-4.12,1.43-4.71-.87-1.22-2.13-2.68-3.18-4.15-.1-.15-.62-.15-.77,0-5,3.56-12.79,9.05-15.21,10.93-1.33,1-1.37,2-.7,4.7.19.68.4,1.49-.24,1.94s-1.29-.26-1.81-1c-.91-1.27-1.9-3.29-4-6.17-1.22-1.71-2.21-2.78-2.83-3.66s-.73-1.54-.2-1.93,1.14-.15,1.88.36c2.54,1.8,3.15,2,4.29,1.36,1.38-.76,7.2-4.48,14.87-10,.39-.28,1.36-1.19,1.22-1.39-.35-.49-2-3.22-2.7-4.19-.56-.78-3.57-.77-5.41-.34-1.16.24-1.58,0-1.69-.2a1.36,1.36,0,0,1,.38-1.75c1.17-.84,4.45-2.44,5.93-3.27.13,0,1.19.11,1.28.56A12.94,12.94,0,0,0,84.85,356L90.61,364c3.77,5.28,4.63,5.76,5.79,6.56.27.17,0,1.08,0,1.12a45.63,45.63,0,0,0-5.14,3.75,2,2,0,0,1-2.1,0C88.86,375,88.88,374.61,89.7,373.59Z" transform="translate(-6 -6)"/><path class="cls-3" d="M104.66,387.8c1.07-1.22.7-2.31-.59-4.27a1.69,1.69,0,0,1-.25-1.48c.49-.52,1.52-.3,2.35.48,1.09,1,2.45,2.56,4.15,4.17,8.21,7.75,9.68,8.9,10.42,9.43.22.12.15.89-.09,1.15a27,27,0,0,1-3.73,3.08c-.54.31-1.43.47-1.78.14s-.52-.5-.13-1.53c.76-1.76,1.19-3.09.61-3.71-1.23-1.41-2.84-2.76-5.11-4.91a1.54,1.54,0,0,0-.89,0,59.45,59.45,0,0,0-5.57,5.81c-.25.35-.36.73-.19.9l2.23,2.1c1.88,1.77,2.76,1.54,4.1,1a1.85,1.85,0,0,1,1.87,0c.35.33,0,1.19-.34,1.58-.54.57-1.78,1.62-2.77,2.67-1.28,1.35-1.77,2-2.06,2.27s-1.08.88-1.6.38c-.35-.33-.49-1-.06-2,.56-1.29.75-1.93-.17-3.05a42.3,42.3,0,0,0-3.15-3.14,1,1,0,0,0-.68.1,42.78,42.78,0,0,0-4.9,5.36,2.39,2.39,0,0,0-.34,1.33c.2,1.18,2.1,3.46,2.36,3.71a37,37,0,0,0,3.26,2.75c1.21.81,2.69.64,4.72.33,1.27-.21,2.07-.53,2.46-.16a1.31,1.31,0,0,1-.25,1.66,16.62,16.62,0,0,1-4.72,2.81,2.2,2.2,0,0,1-2.18-.66c-.44-.41-3.42-3.64-9.92-9.78-1.35-1.28-4.13-3.49-5-4.32s-1.37-1.7-1-2.1,1-.58,2.47.18c2.8,1.49,3.77,1,5.87-1.14,1.57-1.57,3.18-3.19,5.28-5.42C102.73,390,103.47,389.15,104.66,387.8Zm21.88.43a3.53,3.53,0,0,1-2.24.36,49.19,49.19,0,0,1-8.48-1,4.74,4.74,0,0,1-2.28-1.08c-.61-.58.3-1.45,1.52-1.78.68-.1,6.26-.86,8.84-1.15a3.85,3.85,0,0,1,2.6.39A3.5,3.5,0,0,1,126.54,388.23Z" transform="translate(-6 -6)"/><path class="cls-3" d="M162.65,435.5l-1.88,0c-.27,0-.67.26-.35.7a9.19,9.19,0,0,1,2.15,3.32,6.62,6.62,0,0,1-.31,5.23,8.18,8.18,0,0,1-6.42,4.27c-2.69.25-5.61-.77-8.28-2.13-3.21-1.64-4.94-2.86-5.8-3.29-1.39-.71-2.65-1.15-4.41-2-1.12-.57-1.49-1.3-1.22-1.84.35-.7,1.53-.36,2.26-.2,2.47.58,3.06-.06,3.44-.54a75.87,75.87,0,0,0,5.07-8.88,76,76,0,0,0,3.44-7.54c.52-1.55.45-1.93-1.82-3.69-.72-.57-1.09-1-.79-1.62.19-.37,1-.58,1.93-.09l1.12.57c1.93,1,5,2.13,10,4.67,2.73,1.39,4.49,2.83,5.44,4.53a6.13,6.13,0,0,1,.44,5.62A5,5,0,0,1,162.65,435.5ZM157.18,438c-.66-1.48-1.86-2.7-4.21-3.9-1.18-.6-2.14-1-2.52-.34l-3.25,6.37A3.19,3.19,0,0,0,147,443a7,7,0,0,0,2.18,2.33,7.23,7.23,0,0,0,3.46.48,5.8,5.8,0,0,0,4.43-2.87A5.46,5.46,0,0,0,157.18,438Zm-.9-15c-.38.08-.76.56-.95.93-.76,1.5-1.91,4-3.17,6.47a1.22,1.22,0,0,0,.55,1.29,17.76,17.76,0,0,0,5.12,1.73,3.82,3.82,0,0,0,3.56-2.36,5,5,0,0,0,.44-4.16,7.46,7.46,0,0,0-3.71-3.44A3.57,3.57,0,0,0,156.28,423Z" transform="translate(-6 -6)"/><path class="cls-3" d="M185.77,438.46c.39-1.58-.44-2.38-2.48-3.53a1.69,1.69,0,0,1-.9-1.2c.2-.69,1.21-1,2.31-.65,1.44.42,3.35,1.15,5.6,1.8,10.84,3.13,12.68,3.47,13.58,3.6.25,0,.54.72.44,1.06a26.92,26.92,0,0,1-1.91,4.45c-.34.53-1.06,1.07-1.52.94-.29-.08-.69-.2-.81-1.3-.14-1.91-.36-3.29-1.15-3.58-1.74-.69-3.79-1.16-6.79-2a1.55,1.55,0,0,0-.8.39,59.48,59.48,0,0,0-2.29,7.71c-.06.42,0,.82.25.88l2.94.85c2.48.71,3.16.1,4.1-1a1.85,1.85,0,0,1,1.68-.83c.46.13.57,1,.43,1.56-.22.75-.84,2.26-1.24,3.64-.52,1.79-.67,2.55-.79,3s-.56,1.28-1.25,1.08c-.46-.13-.88-.63-.94-1.71-.1-1.4-.22-2.06-1.55-2.63a41.93,41.93,0,0,0-4.23-1.35,1,1,0,0,0-.55.4,42.74,42.74,0,0,0-1.9,7,2.39,2.39,0,0,0,.3,1.34c.72,1,3.45,2.12,3.8,2.22a36.75,36.75,0,0,0,4.16,1c1.45.17,2.69-.66,4.35-1.87,1-.76,1.6-1.41,2.11-1.26a1.31,1.31,0,0,1,.54,1.59,16.59,16.59,0,0,1-2.91,4.66,2.2,2.2,0,0,1-2.24.42c-.58-.17-4.71-1.67-13.3-4.15-1.79-.51-5.28-1.21-6.43-1.54-1.33-.38-2-.89-1.84-1.41s.66-1,2.28-1c3.17,0,3.8-.84,4.69-3.71.67-2.12,1.36-4.29,2.21-7.23C185.07,441.33,185.33,440.21,185.77,438.46Z" transform="translate(-6 -6)"/><path class="cls-3" d="M237.66,471.05c-1.67-.16-6.31-.83-13.72-1.53-3.65-.34-6.66-.38-7.67-.48-.78-.07-1.4-.49-1.35-1s.94-1,1.92-1.15c2.94-.45,3.74-.61,4-2.58.15-1,.37-2.62.5-4,.39-4.18,1-11.12,1.05-13.77.08-1.5-1-1.91-2.54-2.53-.87-.32-1.36-.91-1.31-1.51s.55-.73,1.39-.65,3.33.5,5.06.66c2.63.25,4.4,0,6.79.22,1,.09,1.64.52,1.59,1.05s-.64,1.08-2,1.25c-2.68.29-3.27.84-3.53,2.26-.36,2-1.15,9.66-1.53,13.72-.11,1.2-.1,2.34-.23,3.78a3,3,0,0,0,1.36,2.24,28.3,28.3,0,0,0,5,1,4.27,4.27,0,0,0,4.17-1.42,24.58,24.58,0,0,0,3-3.57c.68-.78,1-1.24,1.38-1.2.72.07,1,1.18.73,1.88a57.6,57.6,0,0,0-2.82,6.91A2.49,2.49,0,0,1,237.66,471.05Z" transform="translate(-6 -6)"/><path class="cls-3" d="M283.21,460.92c.24,2.33.84,4.08,1,5.45a3.77,3.77,0,0,1-1.07,1.32,31,31,0,0,1-9.31,2.77A16.78,16.78,0,0,1,262,467.58a14.17,14.17,0,0,1-5.3-9.77,13.32,13.32,0,0,1,4.62-11.89,19.86,19.86,0,0,1,10.06-4.24,26.2,26.2,0,0,1,7,.12l2.64.45c.25,0,.68.71.81,1.43.27,1.48.77,3.36.86,4.2s-.29,1.84-1,1.92-1-.62-1.4-1.24a9.13,9.13,0,0,0-2.17-2.85c-1.53-1.41-3.76-2-6.63-1.67a10.32,10.32,0,0,0-7,4,12.81,12.81,0,0,0-1.82,8.64,15,15,0,0,0,3.05,7.89,10.74,10.74,0,0,0,9.11,3.46,7.6,7.6,0,0,0,2.84-1.14,3.08,3.08,0,0,0,.79-1.71,31.32,31.32,0,0,0-.17-4c-.13-1.25-.88-1.48-3.88-2-1-.14-1.51-.63-1.56-1.11s.43-1.07,1.45-1.18,3.78-.21,5.45-.38,3.56-.55,4.28-.62c1.25-.13,1.71.25,1.76.72s-.25,1.05-1.22,1.58C283.47,458.78,283,459.25,283.21,460.92Z" transform="translate(-6 -6)"/><path class="cls-3" d="M302.19,441.68c-.54-1.53-1.67-1.74-4-1.58a1.69,1.69,0,0,1-1.42-.5c-.21-.69.49-1.47,1.57-1.81,1.43-.45,3.44-.88,5.67-1.58,10.78-3.36,12.5-4.08,13.33-4.46.21-.13.85.3,1,.65a26.84,26.84,0,0,1,.85,4.77c0,.63-.29,1.48-.75,1.62-.29.09-.69.21-1.39-.63-1.17-1.52-2.11-2.55-2.93-2.36-1.83.38-3.8,1.12-6.78,2.05a1.56,1.56,0,0,0-.45.77,59.63,59.63,0,0,0,2.33,7.7c.18.38.46.67.69.6l2.92-.91c2.47-.77,2.69-1.66,2.87-3.1.11-.85.49-1.47.94-1.62s1.05.55,1.21,1.07c.23.75.54,2.35,1,3.72.55,1.78.84,2.5,1,2.91s.24,1.37-.45,1.59c-.46.14-1.08,0-1.73-.91-.85-1.12-1.32-1.6-2.75-1.35a42.33,42.33,0,0,0-4.28,1.21,1,1,0,0,0-.24.64,42.75,42.75,0,0,0,2.27,6.9,2.39,2.39,0,0,0,1,1c1.13.4,4-.13,4.39-.23a37.2,37.2,0,0,0,4-1.5c1.3-.66,1.88-2,2.61-4,.44-1.21.55-2.06,1.07-2.22s1.1.29,1.33,1a16.61,16.61,0,0,1,.14,5.49,2.2,2.2,0,0,1-1.65,1.58c-.57.18-4.85,1.2-13.39,3.86-1.78.55-5.07,1.89-6.22,2.25-1.32.41-2.15.36-2.31-.16s0-1.2,1.37-2.06c2.67-1.71,2.71-2.79,1.88-5.68-.6-2.14-1.22-4.34-2.13-7.26C303.18,444.46,302.78,443.38,302.19,441.68Z" transform="translate(-6 -6)"/><path class="cls-3" d="M375.52,432.72c-2.91,2-6.6,4.28-8,5.23l-1.88,1.3c-.79.55-1.77.93-2.18.34s0-1.2.78-2.15c1.35-1.74,1.47-2.84,1-3.7s-2.64-4.23-6.15-9.32c-1.54-2.22-3.48-5-4.15-5.89s-1.84-.55-3.41,0c-1.29.45-2,.45-2.3.06s.16-1.35,1-2,2.8-1.86,3.74-2.51c.74-.51,4.49-3.54,6-4.56,4-2.77,7.89-4.21,11.65-4a13.12,13.12,0,0,1,9.8,5.63,13.33,13.33,0,0,1,.94,14C380.92,428.4,377.59,431.29,375.52,432.72Zm-16.66-19.13a2,2,0,0,0-.13,1.4c.44.64,10.32,14.4,10.83,15.13a2.83,2.83,0,0,0,2.48,1.06,9.43,9.43,0,0,0,3.79-1.6,11.67,11.67,0,0,0,3.55-5.74c.7-2.89-.41-6.29-2.32-9.05s-4.43-4.82-7.17-5.41-6.7.76-9.51,2.71A8.62,8.62,0,0,0,358.86,413.59Z" transform="translate(-6 -6)"/><path class="cls-3" d="M390.32,391.57c-1.21-1.08-2.31-.71-4.28.57a1.69,1.69,0,0,1-1.48.25c-.52-.5-.29-1.52.5-2.35,1-1.09,2.58-2.44,4.19-4.13,7.79-8.17,8.95-9.64,9.48-10.37.12-.22.89-.15,1.15.1a27,27,0,0,1,3.06,3.75c.31.54.46,1.43.13,1.78s-.5.52-1.53.12c-1.76-.77-3.09-1.2-3.71-.63-1.42,1.22-2.78,2.83-4.93,5.08a1.56,1.56,0,0,0,0,.89,59.52,59.52,0,0,0,5.78,5.6c.34.25.73.37.9.19l2.11-2.22c1.78-1.87,1.55-2.75,1-4.1a1.85,1.85,0,0,1,0-1.87c.33-.35,1.19,0,1.58.35.57.54,1.61,1.79,2.66,2.78,1.35,1.28,2,1.78,2.26,2.07s.88,1.08.38,1.6c-.33.35-1,.49-2,0-1.29-.56-1.93-.76-3.05.16a41.94,41.94,0,0,0-3.15,3.13,1,1,0,0,0,.1.68,42.71,42.71,0,0,0,5.34,4.93,2.37,2.37,0,0,0,1.32.35c1.18-.2,3.48-2.08,3.73-2.34a37.51,37.51,0,0,0,2.77-3.25c.82-1.21.66-2.69.36-4.72-.2-1.27-.52-2.07-.14-2.46a1.31,1.31,0,0,1,1.66.26,16.6,16.6,0,0,1,2.79,4.73,2.2,2.2,0,0,1-.67,2.18c-.41.43-3.66,3.4-9.83,9.87-1.28,1.35-3.51,4.12-4.34,5s-1.71,1.36-2.1,1-.58-1,.2-2.47c1.51-2.8,1-3.76-1.11-5.88-1.57-1.58-3.17-3.19-5.39-5.31C392.53,393.51,391.66,392.77,390.32,391.57Z" transform="translate(-6 -6)"/><path class="cls-3" d="M450.1,348.28c-1.58,3.17-3.72,6.93-4.47,8.44l-1,2c-.43.86-1.1,1.67-1.74,1.35s-.54-1.07-.35-2.25c.35-2.18-.08-3.2-.89-3.73s-4.35-2.44-9.89-5.19c-2.42-1.2-5.48-2.73-6.48-3.16s-1.88.41-3,1.67c-.91,1-1.56,1.37-2,1.16s-.51-1.26,0-2.23,1.55-3,2.06-4c.4-.81,2.22-5.27,3-6.88,2.17-4.35,4.88-7.5,8.26-9.17a13.12,13.12,0,0,1,11.3.2,13.33,13.33,0,0,1,7.59,11.83C452.75,341.89,451.22,346,450.1,348.28Zm-23.83-8.72a2,2,0,0,0,.57,1.29c.7.35,16,7.63,16.79,8a2.83,2.83,0,0,0,2.68-.27,9.44,9.44,0,0,0,2.55-3.23,11.66,11.66,0,0,0,.34-6.74c-.78-2.87-3.39-5.31-6.4-6.81-3.17-1.58-6.21-2.08-8.89-1.28s-5.5,3.9-7,7A8.52,8.52,0,0,0,426.27,339.57Z" transform="translate(-6 -6)"/><path class="cls-3" d="M433.06,285.69c.35.09.87.72,1.39,1.79a49.12,49.12,0,0,1,3.2,7.92,4.75,4.75,0,0,1,.15,2.52c-.21.81-1.42.44-2.3-.48-.42-.54-3.76-5.08-5.25-7.21a3.85,3.85,0,0,1-.9-2.47A3.5,3.5,0,0,1,433.06,285.69Zm10.12,19.41c-1.58-.35-2.37.5-3.47,2.57a1.69,1.69,0,0,1-1.17.93c-.7-.18-1-1.19-.7-2.29.38-1.45,1.07-3.38,1.67-5.65,2.86-10.92,3.16-12.77,3.27-13.67,0-.25.71-.56,1.05-.47a26.79,26.79,0,0,1,4.49,1.8c.54.33,1.09,1,1,1.5-.08.29-.18.7-1.28.85-1.91.18-3.28.44-3.55,1.24-.65,1.75-1.06,3.82-1.86,6.84a1.57,1.57,0,0,0,.41.79,59.59,59.59,0,0,0,7.77,2.1c.42,0,.82,0,.88-.27l.78-3c.66-2.5,0-3.16-1.1-4.08a1.85,1.85,0,0,1-.87-1.66c.12-.46,1-.6,1.55-.46.75.2,2.28.78,3.67,1.15,1.8.47,2.57.61,3,.72s1.29.52,1.11,1.22c-.12.46-.61.9-1.69,1-1.4.13-2.06.27-2.6,1.62a42,42,0,0,0-1.24,4.27,1,1,0,0,0,.42.54,42.73,42.73,0,0,0,7.06,1.73,2.38,2.38,0,0,0,1.33-.33c.94-.75,2-3.5,2.13-3.85a37.33,37.33,0,0,0,.85-4.18c.13-1.46-.73-2.67-2-4.3-.79-1-1.45-1.56-1.32-2.08a1.31,1.31,0,0,1,1.58-.58,16.6,16.6,0,0,1,4.73,2.79,2.2,2.2,0,0,1,.47,2.23c-.15.58-1.55,4.75-3.82,13.4-.47,1.8-1.08,5.3-1.38,6.47-.35,1.34-.84,2-1.36,1.88s-1-.64-1-2.25c0-3.17-.93-3.78-3.82-4.6-2.13-.62-4.33-1.26-7.29-2C446.06,305.73,444.94,305.5,443.18,305.1Z" transform="translate(-6 -6)"/><path class="cls-3" d="M457.56,251.93l.73,1.73a.42.42,0,0,0,.78.05,9.18,9.18,0,0,1,2.21-3.28,6.61,6.61,0,0,1,4.93-1.77,8.18,8.18,0,0,1,6.45,4.23c1.28,2.37,1.5,5.46,1.29,8.45-.24,3.59-.68,5.67-.75,6.63-.11,1.56,0,2.89-.15,4.86-.08,1.26-.61,1.88-1.21,1.84-.78-.05-.94-1.27-1.07-2-.43-2.5-1.26-2.79-1.85-3a102.37,102.37,0,0,0-18.44-1.37c-1.63.13-1.95.35-2.68,3.13-.24.89-.52,1.41-1.18,1.36-.42,0-.92-.66-.84-1.74l.08-1.26c.15-2.16,0-5.42.38-11,.21-3.05.84-5.24,2-6.78a6.14,6.14,0,0,1,5-2.61A5,5,0,0,1,457.56,251.93Zm-9,10.77a1.79,1.79,0,0,0,1.23.5c1.68.11,4.44.18,7.2.37.42,0,.94-.6,1-1a17.83,17.83,0,0,0-.42-5.38,3.83,3.83,0,0,0-3.57-2.35,5,5,0,0,0-4,1.24,7.45,7.45,0,0,0-1.71,4.76A3.57,3.57,0,0,0,448.58,262.7ZM462,256c-1.1,1.19-1.75,2.77-1.93,5.41-.09,1.32,0,2.34.68,2.45l7.13.48a3.19,3.19,0,0,0,2.71-.9,7,7,0,0,0,1.28-2.92,7.23,7.23,0,0,0-.92-3.37,5.8,5.8,0,0,0-4.37-2.95A5.46,5.46,0,0,0,462,256Z" transform="translate(-6 -6)"/><path class="cls-3" d="M445.11,217.88a26,26,0,0,0,4.61-2.24c3.35-1.71,12.3-6.83,15.07-8.34s3.16-2.66,3.65-4.9c.27-1.19.47-1.51.82-1.56s1.21.45,1.37,1.7c.24,1.79.19,3.73.43,5.58s.53,3.08.7,4.39c.13,1-.28,1.55-.7,1.61s-.95-.3-1.36-1.15c-.72-1.36-1-1.57-2-1.24-1.14.51-3.86,2-4.19,2.19a1.35,1.35,0,0,0-.63,1.17c0,.66.3,2.26.44,3.82a38.09,38.09,0,0,0,.65,4,1.57,1.57,0,0,0,.78.87,19.49,19.49,0,0,0,4.3.89c1.59.09,1.64-.4,1.9-1.7.19-.87.4-1.57,1.11-1.66s1,.6,1.12,1.61c.06.48,0,1,.24,2.75.21,1.61.76,3.47,1,5.14.11.83,0,1.82-.66,1.9-.48.06-1-.48-1.39-1.33a6.09,6.09,0,0,0-4.17-3.63c-4.07-1.46-11.5-3.21-17.93-5.09a14.83,14.83,0,0,0-2.36-.48,7.11,7.11,0,0,1-1.5-.83L445,220a3.23,3.23,0,0,1-.69-1.12A1.08,1.08,0,0,1,445.11,217.88Zm6.42,2.73c2,.59,6.46,1.69,8.76,2.12.13,0,.6-.5.59-.56a21.37,21.37,0,0,0-.33-3,22.84,22.84,0,0,0-.53-3.08s-.46-.3-.69-.21c-.87.3-7.43,3.82-8,4.14C451,220.2,451.4,220.57,451.53,220.61Z" transform="translate(-6 -6)"/><path class="cls-3" d="M439.73,171.79c-2.69,2-3,3.38-2.77,4.07.47,1.43,1.24,3.2,1.8,4.91.06.17.55.33.72.27,5.82-1.91,14.91-4.82,17.78-5.89,1.58-.58,1.91-1.51,2.07-4.28,0-.7.06-1.54.81-1.78s1.15.63,1.43,1.49c.49,1.48.84,3.71,1.94,7.07.65,2,1.27,3.31,1.61,4.34s.24,1.69-.39,1.9-1.14-.2-1.69-.9c-1.89-2.48-2.4-2.88-3.69-2.58-1.54.32-8.21,2.12-17.17,5.06-.46.15-1.66.73-1.58,1,.19.57,1,3.67,1.33,4.81.3.91,3.18,1.8,5.06,1.94,1.18.12,1.5.52,1.55.69a1.36,1.36,0,0,1-.88,1.55c-1.37.45-5,1-6.63,1.35-.13,0-1.1-.46-1.06-.92a12.92,12.92,0,0,0-.88-5.78L436,180.66c-2-6.16-2.7-6.89-3.57-8-.21-.25.29-1,.35-1.06a45.9,45.9,0,0,0,6-2,2,2,0,0,1,2,.67C440.95,170.7,440.81,171.06,439.73,171.79Z" transform="translate(-6 -6)"/><path class="cls-3" d="M97.65,98.58c1.85-.26,3.74.5,5.31.92,2.3.56,4.72.43,6.36-1.35,1.29-1.4,1.77-3.61.12-5.13-1.37-1.26-3.34-1.06-4.55-1.19a1.57,1.57,0,0,1-1.06-.29,1.83,1.83,0,0,1,2.11-2.67,7.63,7.63,0,0,1,4,2.05c3.12,2.87,4.54,7.39,4.6,11.08a18.56,18.56,0,0,1-4.27,12.59c-3.18,3.46-7.12,5.3-10.15,2.52A3.46,3.46,0,0,1,98.8,114a12.3,12.3,0,0,1,.42-2c.19-.52-.23-.56-.47-.43-1,.49-4.72,1.82-6.5,2.82a.38.38,0,0,0-.07.57c1.89,2.89,2.69,7,.05,9.83a5.08,5.08,0,0,1-3.87,1.39c-.18,0-.23.25,0,.48,2,2.25,4.73,3.49,6.28,3.36,1.16-.14,1.47,0,1.88.4s0,.54-.24.82a2.87,2.87,0,0,1-1.33.57,13,13,0,0,0-3.47,1.46,1,1,0,0,1-1.21-.13A10.6,10.6,0,0,1,88,131.56c-5.18-4.76-5.23-11.08-1.13-15.54a8.86,8.86,0,0,1,2.34-2c.26-.16.14-.22,0-.39a8.26,8.26,0,0,0-2.81-1.89,3.58,3.58,0,0,0-3.42.65,4.24,4.24,0,0,0-.86,2.25,1.57,1.57,0,0,1-.24.7,3.34,3.34,0,0,1-4.84.32,4.46,4.46,0,0,1-.36-6.37,1.7,1.7,0,0,1,2.14-.45c.19.17,0,.72-.19,1.21-.77,1.71-.64,3.32.11,4a1.23,1.23,0,0,0,1.76-.22c.83-.9.76-2.52.46-4.06a1.28,1.28,0,0,1,0-1.05,2.7,2.7,0,0,1,2.95-.45,13.66,13.66,0,0,1,5.63,3.45c.34.32.72.66,1.06,1a.69.69,0,0,0,.66,0c1.79-.82,5-1.95,6.06-2.59.35-.19.38-.23,0-.42a5.55,5.55,0,0,0-2.05-.33A2.22,2.22,0,0,1,94.1,109c-2.77-2.55-2.77-5.94-.59-8.31A6.33,6.33,0,0,1,97.65,98.58Zm-6.83,17.19c-.16-.26-.31-.35-.43-.22a14.35,14.35,0,0,0-2.11,1.74A6.62,6.62,0,0,0,87,124.68c.07.12.28.26.37.22A6,6,0,0,0,90,123.33,6.68,6.68,0,0,0,90.81,115.77Z" transform="translate(-6 -6)"/><path class="cls-3" d="M168.58,67.85c-1.71-1-5.49-3.7-7.11-4.78-1.46-.88-2.82-.85-4.72.06a1.07,1.07,0,0,0-.46,1,52.21,52.21,0,0,0,3.39,6.5c.89,1.43,1.81,1.34,4.2,1a1.73,1.73,0,0,1,2,.78c.22.45-.15,1-1.33,1.53s-4.11,1.63-6,2.54c-1.57.75-2.55,1.43-3.89,2.07s-2,.08-2.22-.31,0-.83,1-1.79c1.75-1.8,1.65-2.3,1.2-3.53s-2.38-5.54-4.53-10c-2.49-5.21-2.74-5.71-3.44-6.89-.49-.87-1-1.16-3.57-.7-.75.15-1.89.08-2.24-.65-.21-.45.38-1.08,1.16-1.45.56-.27,1.88-1,3.39-1.69,2.18-1,4-2.24,6.64-3.53,4.09-2,6.59-2.33,9.05-1.79A6.54,6.54,0,0,1,165.41,50a5.67,5.67,0,0,1,0,5.64,24,24,0,0,1-1.48,2.09c-.11.19.1.5.21.59a47.82,47.82,0,0,0,8.51,5.7,10.5,10.5,0,0,0,6.4.72c.89-.15,1.36.11,1.47.33s0,.83-.58,1.38a12.56,12.56,0,0,1-2.67,1.62A8.79,8.79,0,0,1,168.58,67.85Zm-17.81-15.9a2.07,2.07,0,0,0,.17,1.23c.48,1,3.16,7,4,7.79,0,.06.69.43,1,.29a16,16,0,0,0,5-3.72,4.82,4.82,0,0,0-.06-4.44,6.28,6.28,0,0,0-8.7-2.64A4.6,4.6,0,0,0,150.77,51.95Z" transform="translate(-6 -6)"/><path class="cls-3" d="M181.92,35.69c1.09-.26,5-.82,6.3-1.14,2-.48,3.85-1.25,4.81-1.48s1.67,0,1.82.65-.46,1.26-1.58,1.91c-1.75.94-2.15,1.41-1.65,3.47.74,3.33,1.75,7.24,2.74,11.09,1.07,4.15,2.94,5.55,4.48,6.39a8.36,8.36,0,0,0,5.22.46c4.1-1,6.72-2.84,5.66-10.12-.62-3.87-2.16-10.78-2.47-11.79-.66-1.95-1.31-2-3.7-2.11-1.43-.1-1.91-.5-2-1s.63-1.11,1.53-1.33c1.39-.34,2.41-.33,3.86-.68,1.69-.41,4.38-1.44,5.64-1.75s1.66.24,1.74.6c.13.54-.58,1.29-1,1.51-2.8,1.63-3,2.72-2.68,4.48.31,1.52.81,4.66,1.52,8.38.94,5.2,1.22,9-1.09,12.65a12,12,0,0,1-7.19,4.61c-4,1-7.44.39-9.1-.67-2.4-1.46-4.15-3.15-6.19-10.83-1-3.53-2.33-8.83-2.61-9.72-.44-1.3-1.92-1.32-3.66-1.41-.78-.07-1.53-.52-1.62-.89S181,35.93,181.92,35.69Z" transform="translate(-6 -6)"/><path class="cls-3" d="M256.94,46.13c0,2.42.52,4.27.55,5.7a3.9,3.9,0,0,1-1.22,1.27,32.05,32.05,0,0,1-9.83,2.06,17.35,17.35,0,0,1-11.88-4,14.66,14.66,0,0,1-4.62-10.52,13.77,13.77,0,0,1,5.78-11.85,20.54,20.54,0,0,1,10.73-3.51,27,27,0,0,1,7.22.72l2.68.69c.25.06.64.79.71,1.54.16,1.55.51,3.53.52,4.4s-.46,1.87-1.2,1.89-1-.72-1.33-1.4a9.43,9.43,0,0,0-2-3.13c-1.46-1.58-3.71-2.35-6.69-2.29a10.67,10.67,0,0,0-7.56,3.57A13.24,13.24,0,0,0,236.2,40a15.45,15.45,0,0,0,2.47,8.39,11.11,11.11,0,0,0,9.09,4.35,7.87,7.87,0,0,0,3-.93,3.19,3.19,0,0,0,1-1.7,32.43,32.43,0,0,0,.16-4.16c0-1.3-.78-1.6-3.83-2.34-1-.23-1.51-.78-1.52-1.27s.54-1.07,1.59-1.09,3.91.11,5.65.07,3.72-.26,4.46-.28c1.3,0,1.75.4,1.76.9s-.35,1.06-1.4,1.52C257.39,43.95,256.9,44.39,256.94,46.13Z" transform="translate(-6 -6)"/><path class="cls-3" d="M278.92,56.44c-1.66-.25-5.63-.54-6.61-.69-1.17-.18-1.56-.87-1.5-1.3.09-.61.7-.9,1.65-.94,3.47-.1,4.12-1.07,4.47-3s1.3-6.52,1.68-9c.82-5.4.92-6.89,1.11-8.12.16-1.48-.09-2.34-2.93-3.46-.77-.3-1.52-.73-1.41-1.47a1.72,1.72,0,0,1,1.87-.72c1.72.26,5.07.9,6.61,1.13,1.23.19,4.4.35,5.32.49,1.17.18,1.52.73,1.47,1.1-.11.74-1.12,1.15-2.07,1.25-2.17.24-3.4.87-3.5,1.54l-.75,5c-1.28,8.47-1.58,11.69-1.69,13.18.15,2.35.49,3,2.8,3.88,1,.4,1.3,1,1.26,1.2a1.58,1.58,0,0,1-1.91,1C282.63,57.19,280.39,56.67,278.92,56.44Z" transform="translate(-6 -6)"/><path class="cls-3" d="M318.28,62.91c-.54-1.89-1.35-6.48-1.75-8.39-.42-1.65-1.42-2.58-3.42-3.25a1.06,1.06,0,0,0-1.06.43,52.45,52.45,0,0,0-2.11,7c-.36,1.65.36,2.22,2.3,3.66.94.71,1,1.46.86,1.93s-.79.59-2,.17S307,62.76,305,62.09c-1.65-.56-2.82-.76-4.24-1.23s-1.5-1.36-1.37-1.77.59-.59,2-.58c2.51-.07,2.79-.5,3.32-1.69s2.16-5.62,3.75-10.33c1.85-5.47,2-6,2.35-7.33.26-1,.07-1.55-2.07-3-.65-.42-1.41-1.26-1.15-2,.16-.47,1-.51,1.85-.23.59.2,2,.62,3.61,1.15,2.29.78,4.39,1.16,7.21,2.11,4.29,1.45,6.35,2.93,7.73,5a6.53,6.53,0,0,1,.49,5.73,5.67,5.67,0,0,1-3.92,4,24,24,0,0,1-2.51.46c-.22.06-.28.43-.26.57a47.85,47.85,0,0,0,2.12,10A10.5,10.5,0,0,0,328,68c.74.51.9,1,.82,1.26s-.59.59-1.37.58a12.54,12.54,0,0,1-3-.7A8.79,8.79,0,0,1,318.28,62.91Zm-1.65-23.82a2.09,2.09,0,0,0-.73,1c-.36,1.06-2.64,7.23-2.57,8.37,0,.06.19.79.49.89a16,16,0,0,0,6.2.85A4.81,4.81,0,0,0,323.08,47a6.28,6.28,0,0,0-4.38-8A4.62,4.62,0,0,0,316.63,39.09Z" transform="translate(-6 -6)"/><path class="cls-3" d="M402.2,99.46c.23,1.85-.55,3.73-1,5.3-.59,2.29-.49,4.72,1.27,6.37,1.39,1.31,3.59,1.81,5.13.18,1.28-1.36,1.1-3.33,1.24-4.53a1.57,1.57,0,0,1,.3-1.06,1.83,1.83,0,0,1,2.64,2.14,7.61,7.61,0,0,1-2.1,4c-2.91,3.08-7.45,4.44-11.13,4.46A18.56,18.56,0,0,1,386,111.86c-3.42-3.23-5.21-7.19-2.4-10.18a3.46,3.46,0,0,1,3.11-1.26,12.25,12.25,0,0,1,2,.45c.51.19.56-.23.44-.46-.48-1-1.76-4.74-2.74-6.54a.38.38,0,0,0-.57-.07c-2.91,1.85-7,2.6-9.83-.07a5.08,5.08,0,0,1-1.34-3.89c0-.18-.25-.23-.48,0-2.28,2-3.55,4.69-3.44,6.24.12,1.16,0,1.47-.42,1.87s-.54,0-.82-.25a2.87,2.87,0,0,1-.55-1.33,13.09,13.09,0,0,0-1.42-3.49,1,1,0,0,1,.14-1.2,10.57,10.57,0,0,1,1.61-2.26c4.82-5.11,11.15-5.09,15.55-.94a8.85,8.85,0,0,1,2,2.37c.16.27.21.14.39,0A8.23,8.23,0,0,0,389.16,88a3.58,3.58,0,0,0-.61-3.43,4.23,4.23,0,0,0-2.24-.89,1.56,1.56,0,0,1-.7-.25,3.34,3.34,0,0,1-.26-4.85,4.46,4.46,0,0,1,6.37-.28,1.7,1.7,0,0,1,.42,2.14c-.17.19-.72,0-1.2-.2-1.7-.79-3.32-.68-4,.06a1.23,1.23,0,0,0,.2,1.76c.89.84,2.51.79,4.06.51a1.28,1.28,0,0,1,1,.06,2.7,2.7,0,0,1,.42,3,13.66,13.66,0,0,1-3.52,5.59c-.32.34-.67.71-1,1a.68.68,0,0,0,0,.66c.8,1.8,1.88,5,2.51,6.1.19.35.22.38.42,0a5.58,5.58,0,0,0,.36-2,2.22,2.22,0,0,1,.47-1.18c2.58-2.74,6-2.69,8.31-.48A6.33,6.33,0,0,1,402.2,99.46Zm-17.1-7c.26-.16.35-.31.23-.43a14.23,14.23,0,0,0-1.71-2.14,6.62,6.62,0,0,0-7.38-1.31c-.12.06-.26.28-.23.37a6,6,0,0,0,1.54,2.56A6.68,6.68,0,0,0,385.09,92.41Z" transform="translate(-6 -6)"/></g><g id="structure"><circle id="round-exterieur" class="cls-4" cx="243.5" cy="243.5" r="178.81"/><circle id="rond-interieur" class="cls-4" cx="243.5" cy="243.5" r="239.5"/></g></g></svg>