<svg xmlns="http://www.w3.org/2000/svg" viewBox="0 0 496 496"><defs><style>.cls-1{fill:#fff;}.cls-2{fill:#333;}.cls-3{fill:none;stroke:#2a363b;stroke-miterlimit:10;stroke-width:8px;}</style></defs><title>rugir-nt-color-full</title><g id="fond"><circle class="cls-1" cx="247" cy="248" r="238"/></g><g id="sceau"><g id="lion"><path id="criniere_et_visage" data-name="criniere et visage" class="cls-2" d="M26.86,265.7a9.87,9.87,0,0,0,.75-2.13c1.14-10.13,2-20.3,3.4-30.4,1.77-13,4.35-25.84,9-38.16,1.79-4.75,4.1-9.31,6.16-14,.29-.66.5-1.37.74-2.05l-.56-.49c-2.25,1.54-4.59,3-6.71,4.65s-4.06,3.69-6.55,5.36a46.71,46.71,0,0,1,1-6.9c2-6.7,3.94-13.45,6.5-19.95,4-10.12,9.55-19.45,15.63-28.46a231.66,231.66,0,0,1,28.24-34c1.1-1.1,1.63-2.81,2.31-4.29,2.18-4.74,6.2-7.66,10.64-9.7A98.85,98.85,0,0,0,116,74.37c-3.77.43-6.94,2.88-10.65,3.58,21.77-22.87,49.17-34.2,79.78-38.94l.11-.57c-1.48-.53-3-1.06-4.44-1.57s-3-1-4.54-1.53l.08-.57c2.92-.73,5.81-1.6,8.75-2.17,6.49-1.25,13-2.5,19.53-3.48a89.72,89.72,0,0,1,28.49,0c5.07.86,10.1,2,15.1,3.25,3.13.75,5.85-.71,8.76-1.17,5.87-.93,11.71-2.15,17.61-2.8,10.9-1.2,21.68.28,32.38,2.25,6,1.09,11.83,2.62,17.75,3.95l.1.67-9,3,.07.64c30.78,4.75,58.26,16.22,80.05,39.41l-10.7-4.45-.29.68c2.9,1.87,5.71,3.9,8.72,5.56,3.45,1.91,7.12,3.42,10.62,5.25s7.34,4.12,8.93,7.9c2.33,5.55,6.75,9.2,10.6,13.39,14.65,15.94,27.12,33.35,36,53.17a98.52,98.52,0,0,1,8.11,27.49,10.88,10.88,0,0,1-.09,1.59c-4.33-3.9-7.91-8.23-13.7-9.86.55,1.26,1,2.56,1.67,3.79a122.77,122.77,0,0,1,8.5,22.17,214.88,214.88,0,0,1,7.08,40c.69,7.77,1,15.59,1.23,23.39.2,6.82.06,13.65,0,20.48a17.27,17.27,0,0,1-.8,4.78c-2.06-4.91-3.34-10.08-7.7-13.82.14,1.12.21,2.26.44,3.36,2,9.47,1.63,18.94,0,28.42-3.37,19.89-11.54,37.86-21.8,55a218.41,218.41,0,0,1-33.41,43,94.7,94.7,0,0,1-19.52,15.5,13,13,0,0,1-1.62.56,46.51,46.51,0,0,0,5.7-22.4c-11.67,29-34.32,45.64-62.64,56.36l2.78-15.83-.64-.47c-12.5,16.6-29.68,24.69-49.61,28,3.1-4.76,4.4-10,4.93-16a36.38,36.38,0,0,1-4.35,2.11c-6.34,2-12.75,3.9-19.08,6a59.92,59.92,0,0,0-9.64,4c-1.69.91-2.92,2.74-4.2,4.29-.6.72-1.14,1.49-1.68.34-2.19-4.64-6.49-6.22-10.85-7.61-6.54-2.09-13.17-3.91-19.72-6a50.64,50.64,0,0,1-5.4-2.43c-.39-.17-.81-.27-1.6-.53.76,5.71,1.73,11,5,15.71a82.39,82.39,0,0,1-27.42-8.79,68.42,68.42,0,0,1-22.12-18.94l-.72.27,2.7,15.7a115.52,115.52,0,0,1-37.6-21.32,88.83,88.83,0,0,1-25-34.93,50.75,50.75,0,0,0,5.15,22.23,15,15,0,0,1-2-.83,92,92,0,0,1-16.5-13A220,220,0,0,1,49,349.62,145.51,145.51,0,0,1,38,319.68c-2.68-11.09-3.83-22.32-2.13-33.7a56.73,56.73,0,0,0,.82-6c-4.1,3.73-5.46,8.82-7.17,13.74l-.57,0c-.41-2-.78-4-1.24-6.06a23.25,23.25,0,0,0-.88-2.52Q26.86,275.44,26.86,265.7Zm157.74,33.87.67.65c-.31.55-.6,1.11-.94,1.64-6.58,10.22-10.12,21.26-9.75,33.56.27,9,2.42,17.09,9.5,23.32a11.56,11.56,0,0,0,9.82,3.11,153,153,0,0,0,22.74-5.38,104.49,104.49,0,0,0,22-9.36c6.22-3.58,9.6-8.53,8.63-15.94a2.84,2.84,0,0,0-2.43-2.66c-1.74-.49-3.82-1-4.93-2.3-2.68-3-5.74-4.37-9.72-5.19-5.84-1.21-11.49-3.48-17.13-5.54a22.17,22.17,0,0,1-12.91-11.35c-1.7-3.49-1.19-9,1.73-11.18-1.52,6.25,1.91,9.41,6.77,12.3a16.43,16.43,0,0,0-.22-2.31,7.64,7.64,0,0,1,1.41-7,39.27,39.27,0,0,1,5.91-5.81,7,7,0,0,1,6.8-1.06,49.53,49.53,0,0,1,5.67,2.32,37.55,37.55,0,0,0,16.8,4.06c4-.06,8,0,11.93,0a35.94,35.94,0,0,0,14.37-3.33c2.72-1.17,5.42-2.6,8.28-3.21,4.34-.92,11.74,4.67,12.77,9.44a43.16,43.16,0,0,1,.41,6.61c4.53-2.52,7.68-5.8,7-11.71a6.27,6.27,0,0,1,1.45,2.1c1.81,4.49.4,8.38-2.24,12.08-3,4.22-7.23,6.66-12,8.45-6.55,2.49-13.1,4.91-20.09,5.93a5.35,5.35,0,0,0-2.95,1.7c-2.24,2.54-4.67,4.6-8.17,5.18a2.58,2.58,0,0,0-1.77,1.56,15,15,0,0,0,1.18,10c2.44,4.54,6.83,6.84,11.17,8.85a144.54,144.54,0,0,0,18.56,7.33c7.44,2.25,15.12,3.74,22.73,5.41a9,9,0,0,0,7.7-1.83c6-4.77,9.77-10.8,10.69-18.57a57.14,57.14,0,0,0-9.36-39.69,14.55,14.55,0,0,1-.83-1.65l.4-.34c3.79,2.44,7.86,4.5,10.7,8.94.25-1.13.39-1.68.5-2.23a30.38,30.38,0,0,1,1.08-5.44c2.06-5.21,4.14-10.43,6.59-15.46a60.1,60.1,0,0,1,16.1-19.9c3.8-3.15,7.41-6.76,9-11.57a24.91,24.91,0,0,0,1.35-9,122.27,122.27,0,0,0-1.92-18.53,168.39,168.39,0,0,0-5.74-20c-.92-2.73-1.48-5.1-.07-7.76a9.92,9.92,0,0,0,1.13-3.76c.85-10.9-3-19.82-11.54-26.67a52.53,52.53,0,0,0-17.71-9.05c-3.37-1-6.1-2.73-7.78-6a27.37,27.37,0,0,0-2.83-4.29,2.73,2.73,0,0,0-2-1c-11.8,1-22.5-2.23-32.5-8.29a4.1,4.1,0,0,0-2.93-.6c-5.28,1.68-10.59,3.34-15.72,5.43-4.22,1.71-8.22,4-10.57,8.23-.58,1-1.29.82-1.79-.07a17,17,0,0,0-6.63-6.12c-6.27-3.7-13.23-5.62-20.15-7.62a3.11,3.11,0,0,0-1.85.42c-4.8,2.17-9.49,4.64-14.41,6.5a37.88,37.88,0,0,1-16.42,2.19c-2.78-.22-4.56.41-5.79,2.89A16.36,16.36,0,0,1,182,155a14.25,14.25,0,0,1-4.2,3.45c-3.47,1.6-7.22,2.58-10.67,4.2-10.2,4.78-18.18,11.71-20.59,23.31-.85,4.11-1.37,8.41.47,12.5,1.15,2.57,1.66,5,.23,7.77a31.77,31.77,0,0,0-2.57,6.84c-1.63,6.4-3.33,12.81-4.5,19.3a85.05,85.05,0,0,0-.89,13,21.07,21.07,0,0,0,7.52,17.21c2.44,2.11,4.79,4.33,7.07,6.61A61.23,61.23,0,0,1,164,282.09c4.43,7.8,8.56,15.69,9.65,24.78a2.32,2.32,0,0,0,.37.9ZM296.55,88l.35.4c2.91-1.38,5.73-3,8.73-4.09,12.94-4.93,26.19-5.43,39.64-2.46,2.22.49,4.29.72,6.55-.37a34.66,34.66,0,0,1,7.37-2.26A62.9,62.9,0,0,1,378,78.08a9.33,9.33,0,0,0,1.61-.15c-9.31-6.23-19.67-9.85-29.7-14.25H370a5.74,5.74,0,0,0-.5-.66,4,4,0,0,0-.77-.62,137.43,137.43,0,0,0-37.19-15c-6-1.44-12.15-2.61-18.28-3.64-3.24-.55-6.66-1.16-9.84-.68-9.86,1.49-17.84,6.67-24.58,13.86S267.1,72.2,262.52,80.73c-1.16,2.16-2.27,4.36-3.41,6.54l-.65-.31A71.51,71.51,0,0,1,273.08,54.3c7.85-10.11,19.23-14.28,30.69-18.57a6.32,6.32,0,0,0-2.6-1c-5.47-.53-10.93-1.18-16.42-1.42a85.06,85.06,0,0,0-26.93,2.94c-3.16.89-6.33,2.09-9.73,1.25-3.78-.94-7.53-2.09-11.35-2.8-12.45-2.29-24.93-1.73-37.38.12a13.54,13.54,0,0,0-2.57,1.05c12.08,4.31,23.29,8.51,31.31,18.55S243.4,83,242,87.2c-.42-.65-.83-1.25-1.19-1.87-3.71-6.39-7.12-13-11.19-19.14-5.73-8.66-12.81-16.11-22.58-20.27-3.53-1.5-7.48-3.1-11.17-2.94a133.29,133.29,0,0,0-31.38,5.64,137.26,137.26,0,0,0-32,13.72,12,12,0,0,0-1.54,1.3c6.89-.67,13.57-.26,20.3.08-10.15,4.32-20.44,8.08-30.21,14a5.61,5.61,0,0,0,1.07.38c.66,0,1.32,0,2-.06,8.34-.46,16.56.1,24.41,3.2A10.2,10.2,0,0,0,155,82a64,64,0,0,1,6.44-1.18c13.72-2,26.9-.41,39.36,5.94l3.47,1.77.27-.47a49,49,0,0,0-24.23-16.51A8.61,8.61,0,0,1,183.2,71a28.06,28.06,0,0,1,13.23,3.69A48.08,48.08,0,0,1,214.7,92.27c5,8.05,9.59,16.44,13.94,24.89a102.73,102.73,0,0,0,20.49,28.05c1.1,1,1.8,1,2.77,0,2.3-2.47,4.69-4.85,7-7.35,6.11-6.73,10.39-14.65,14.5-22.67,5.22-10.18,10.23-20.46,17.77-29.25C297.07,79,304,73.81,312.95,71.56a19.58,19.58,0,0,1,7.55-.29c-4.52,2.31-9,4.3-13.09,6.76A41.67,41.67,0,0,0,296.55,88ZM289,136.69a8.52,8.52,0,0,0,1.53.89,51.31,51.31,0,0,0,20.25,3.21c9.68-.42,18.89-3.22,28.23-5.33s18.66-3.44,28.06-.67c2.85.84,5.56,2.11,8.34,3.19l-.24.88a29,29,0,0,1-2.92-.32,53.8,53.8,0,0,0-24.4.79c-5.44,1.37-10.83,3-16.24,4.48-2.74.75-5.5,1.41-8.24,2.14-2.27.61-2.44,1-1.61,3.22,1.25,3.32,4.19,4.49,7.16,5.4,5.26,1.6,10.71,1.67,16.15,1.36,8.42-.48,16.77-.61,25.06,1.55s15.92,5.65,22.38,11.43a17.64,17.64,0,0,1,1.22,1.34l-.3.66c-14.92-6.13-30.29-9.46-47-8,.79.93,1.22,1.53,1.74,2A59.27,59.27,0,0,1,362,185.28c1.44,3.47,2.5,7.13,4.17,10.48,2.59,5.21,6.85,9.05,11.46,12.46,8.55,6.3,18,11,27.37,16,10.82,5.73,21.56,11.59,31.49,18.8,12.39,9,23.13,19.52,30.85,32.89.2.35.72.51,1.2.83a3.93,3.93,0,0,0,.26-.86,319.43,319.43,0,0,0-3.31-37.37,253,253,0,0,0-8.07-35.36,145.91,145.91,0,0,0-14.4-32.37l-1.17-1.92.32-.52a13.48,13.48,0,0,1,2.7.66c4.06,1.93,8.07,4,12.12,5.92a12.69,12.69,0,0,0,2,.57c-4.5-17.93-31.23-61.7-40.36-66.11,0,.67,0,1.24.08,1.81.27,4,.46,7.92.86,11.86a6.47,6.47,0,0,0,1.3,3.5c6.82,7.64,12.92,15.76,17.07,25.19,1.23,2.79,2.2,5.7,3.29,8.56l-.75.48c-8-8.24-14.61-17.7-22.55-26-2.45,1.68-2.63,3.32-.88,5.35,1.9,2.2,3.77,4.45,5.46,6.8,5,7,7.62,15.21,10.78,23.11a5.51,5.51,0,0,1,0,1.64c-5-3.71-9.13-8-14.43-10.81a106.42,106.42,0,0,1,22.54,35.08c5.26,13.25,7.59,26.87,5.5,41.31-12.7-25.56-33.94-37.8-61.57-40.41,10.73-4.58,21.22-3.05,31.57,1a53.64,53.64,0,0,1,25,20.19c-6.14-30.12-23.56-52.23-48.8-69a56.08,56.08,0,0,1,26.26,4.65,8.14,8.14,0,0,0-.61-1.4c-3.09-3.77-5.84-7.91-9.37-11.22-10.47-9.81-23.24-15.45-36.88-19.34-2.63-.75-5.28-1.48-8.54-2.4,5.93-2.93,12.13-3.24,17.61-6a40.85,40.85,0,0,0-9.63-2.35c-12.27-1-24.26.88-36.2,3.59a94.79,94.79,0,0,0-28.72,12C301.31,130.22,295.17,133.3,289,136.69Zm-181.34,34.2-.68-1.17a9.35,9.35,0,0,0,1.71-1c8.93-7.88,19.61-11.67,31.21-12.83,5.24-.52,10.59.17,15.88,0a133.08,133.08,0,0,0,16-1.33c3.4-.54,6.51-2.25,7.78-6,.41-1.2.15-2-1-2.31s-2.46-.51-3.67-.83c-8.74-2.33-17.43-4.87-26.23-7a45.7,45.7,0,0,0-19.53,0c-1.16.23-2.34.33-3.51.5a1.91,1.91,0,0,1,.94-1.23c9.32-5,19.27-5.4,29.37-3.54,7.27,1.33,14.45,3.16,21.66,4.81,9.84,2.25,19.65,2.77,29.43-.28,1.86-.58,3.65-1.36,5.47-2.05a10.22,10.22,0,0,0-2.59-1.47c-5.59-3-11.13-6-16.74-9-5.38-2.81-10.61-6.1-16.28-8.08-6.95-2.43-14.26-3.89-21.47-5.46a88.67,88.67,0,0,0-27.27-1.57c-2.95.28-5.83,1.27-8.74,1.94v.86c5.54,2.18,11.7,2.6,17.36,5.35a4.63,4.63,0,0,1-.74.5,124.11,124.11,0,0,0-26,9c-9.79,4.7-18.39,10.94-25.1,19.57-1.19,1.53-2.2,3.18-3.52,5.11,4.75-1.33,8.91-2.78,13.19-3.62s8.59-1.61,13.17-.47a116.41,116.41,0,0,0-31.6,29.51c-8.64,11.76-14.79,24.67-17,39.25a4.58,4.58,0,0,0,1.4-1.34c11.89-16.42,27.91-24,48.15-22.23,2.31.2,4.54,1.26,7.25,2.05C86.77,197.84,70.73,212,53.5,237.3c-2.37-30.17,8.82-54.87,28.52-76.53-5.21,2.88-9.32,7.27-14.31,10.57a5.3,5.3,0,0,1,.29-2.11c.49-1.37,1.07-2.71,1.57-4.07,3.32-9.06,7.34-17.75,14.16-24.79,1.47-1.51,1.66-2.74.65-4.47-.67-1.15-1.2-1.5-2.18-.32-1.48,1.78-3.07,3.47-4.57,5.23C72.43,146.89,67.25,153,62,159.06a13.52,13.52,0,0,1-1.76,1.47l-.49-.42c1.12-2.88,2.13-5.81,3.39-8.63a92,92,0,0,1,16.78-24.67,5.73,5.73,0,0,0,1.58-4.07c.1-3.89.49-7.78.75-11.67,0-.55,0-1.11,0-1.66l-.52-.19c-17.56,19.32-31.27,41-40,66.4a22.27,22.27,0,0,0,2.47-.81c3.91-1.92,7.79-3.92,11.72-5.8a12.67,12.67,0,0,1,2.83-.63l.28.56c-.34.61-.69,1.21-1,1.83-2.47,4.6-5.13,9.1-7.35,13.81a160.22,160.22,0,0,0-9.2,25.53A213.23,213.23,0,0,0,35,242c-1.28,10.71-1.83,21.5-2.69,32.26-.06.75-.07,1.5-.1,2.26l.66.28c.54-.8,1.12-1.58,1.63-2.4,10-16.32,24.07-28.42,40.22-38.15,10.75-6.48,22-12,32.94-18.31a200.6,200.6,0,0,0,18-11.6,29.88,29.88,0,0,0,11.49-15.76,60.11,60.11,0,0,1,15.84-25.75,20.62,20.62,0,0,0,1.49-1.92C137.85,161.45,122.55,164.81,107.68,170.89Zm171.23,239c-.28-.7-.44-1.05-.56-1.41-.66-2-.88-2.05-2.78-1a10.22,10.22,0,0,1-2.71,1.2c-1.7.34-1.5,1.11-1,2.4.91,2.47,2.05,5,2.29,7.54,1.14,12.31-4,21.66-14.1,28.45a8.74,8.74,0,0,1-1.35.6c-.06-.39-.14-.55-.09-.63.4-.6.8-1.21,1.25-1.78,4-5,7-10.39,8.14-16.76a25.59,25.59,0,0,0-1.39-14.81,4.46,4.46,0,0,0-5-3c-4.14.31-7.44,2-9.55,5.75-1.26,2.26-1.69,2.24-3,0a10.27,10.27,0,0,0-6.25-5.16c-4.5-1.22-7.19-1.22-8.83,3.46a26.07,26.07,0,0,0-1.3,6.19c-.69,7.5,1.59,14.23,5.68,20.41,1.33,2,2.8,3.94,4.21,5.91l-.37.45a21.32,21.32,0,0,1-7.11-5.37c-8.72-9.8-11.13-20.74-5.33-33a27.81,27.81,0,0,1-4.34-1.92c-1.54-1-2.26-.65-2.73,1-.12.42-.34.8-.64,1.5a11.22,11.22,0,0,1-1.39-1.26c-3.16-4.15-7.55-6.27-12.4-7.7-3.67-1.08-7.37-2.12-11-3.37-2.46-.85-2.9-.87-4.53,1.21a22.84,22.84,0,0,0-4.4,12.14c-.07.65-.24,1.29-.37,1.93h-.63c-.34-1.36-.77-2.7-1-4.08-1-5.88-.93-11.59,2.63-16.8a2.86,2.86,0,0,0-.12-2.42c-1-2-2.43-3.79-3.49-5.77-2.14-4-3.82-8.18-3.3-12.87.11-1,.41-1.94.73-3.43a16.37,16.37,0,0,0-1.62,1.38A41.51,41.51,0,0,0,171.09,392c-1.34,13.92,2.78,26.4,10.5,37.83,1.71,2.53,3.71,4.87,5.58,7.3l.72-.12c1.21-3.93,1.61-8.18,4.51-11.4s6.48-5,10.56-7.26a15.62,15.62,0,0,1-.4,2.24,20.58,20.58,0,0,0-1,12.42c1.86,7.72,6.38,13.15,13.74,15.69,6.91,2.38,14.09,4,21.17,5.84,4.93,1.31,9.53,3.21,13,7.16.86,1,1.36.74,2.22-.07a31,31,0,0,1,5.09-4.05c4.74-2.83,10.15-3.7,15.42-4.92,5.53-1.28,11.09-2.46,16.22-5,8.23-4.15,13.15-14.23,11.17-23.16-.4-1.83-.92-3.63-1.38-5.45l.39-.4c1.16.66,2.29,1.37,3.47,2,5.77,2.91,9.37,7.4,10.34,13.88a17.82,17.82,0,0,0,1.07,3c9.69-11.08,15.7-23.18,16.63-37.48a41.67,41.67,0,0,0-9.79-30.38,23.73,23.73,0,0,0-1.87-1.77c0,.71-.14,1-.05,1.2,1.14,2.74.67,5.44,0,8.17a38.49,38.49,0,0,1-6,12c-.72,1-1.06,1.9-.18,3.19,3.49,5.1,3.53,10.8,2.46,16.61-.24,1.31-.63,2.59-.95,3.89l-.58,0c-.14-.65-.34-1.29-.41-2a24,24,0,0,0-4.57-12.3c-.93-1.2-1.9-1.89-3.55-1.35-4,1.31-8.07,2.5-12.11,3.76-4.74,1.49-9.11,3.56-12.18,7.71A9.88,9.88,0,0,1,278.91,409.93ZM130.38,255.24l-.65-.09c-.5.59-1,1.21-1.51,1.76-3.33,3.37-6.28,7.27-10.1,10-6.25,4.4-13,8-19.64,11.92C93,282,87.15,284.83,81.88,288.44c-7.54,5.16-12.14,12.72-15.49,21.12A56.32,56.32,0,0,0,64,342.94a157.34,157.34,0,0,0,6.59,21.59A128,128,0,0,0,97,407.31c1.55,1.66,3.22,3.21,5.25,5.21a8,8,0,0,0,0-1.52c-1.36-4.41-3.09-8.74-4.05-13.23a55.52,55.52,0,0,1,.57-23.85,84.38,84.38,0,0,1,6.67-18.61c5.18-10.65,11.55-20.36,21.32-27.46a53.17,53.17,0,0,0,19-25.1c2.66-7.2,3.68-14.56,1.6-22a64.34,64.34,0,0,0-4.65-11.52c-1.17-2.32-3.15-4.24-4.76-6.34l-.78.23a20.32,20.32,0,0,0-.82,2.27c-.4,1.67-.52,3.43-1.08,5a37.8,37.8,0,0,1-15.82,20.23c-2.9,1.84-6,3.45-8.73,5.46-15.36,11.11-23.48,26-23.17,45.16,0,1.13-.1,2.26-.15,3.39A41.46,41.46,0,0,1,87,320.05c4.18-14.5,13.16-25.26,26.09-32.88,11.24-6.62,16.75-16.69,17.5-29.54A14.38,14.38,0,0,0,130.38,255.24ZM398.72,411.72l.47.25c.39-.32.8-.62,1.17-1a119.81,119.81,0,0,0,22.27-29.5,145.89,145.89,0,0,0,13.09-32.68c3.33-12.36,4-24.67-.22-36.94-3.78-11-10-20.28-20.36-26.17-7.71-4.37-15.58-8.44-23.29-12.82a68,68,0,0,1-18.11-14.6c-.84-1-1.77-1.87-3.07-3.24a18.89,18.89,0,0,0-.16,3c.31,2.36.67,4.71,1.13,7,1.73,8.86,6.65,15.61,14,20.57,5.44,3.64,11,7,15.53,11.91,10.6,11.6,15.81,25,14.22,40.84-.21,2.13-.81,4.22-1.22,6.33l-.64,0c0-1.46,0-2.93,0-4.39a50.49,50.49,0,0,0-6.64-26.23c-5.25-9.29-12.82-16.18-22.06-21.42-11-6.23-18.34-15.15-20.23-28a9.28,9.28,0,0,0-1.07-2.23l-1.28,1.73c-.4.53-.79,1.06-1.21,1.58-7,8.48-9.71,18.31-7.85,29,2.14,12.34,8.4,22.56,18,30.68,4.14,3.49,8.68,6.7,12.15,10.79a86.44,86.44,0,0,1,19.66,41.88A53.57,53.57,0,0,1,401,405.53C400.24,407.59,399.47,409.65,398.72,411.72ZM282.47,399.89c3.78-1.74,7.26-3.66,11-5,7.12-2.5,12.67-6.63,16.17-13.46,2-3.92,2.84-7.73.86-11.92a3.82,3.82,0,0,0-4.3-2.5c-11.17.78-21.8-1.73-32.24-5.44a110.23,110.23,0,0,1-19.47-9.7,7.52,7.52,0,0,0-7.92,0c-4.75,2.59-9.4,5.42-14.34,7.59-12.19,5.36-24.89,8.46-38.37,7.59a3.15,3.15,0,0,0-2.41,1.18c-1.6,2.49-2.71,5.23-1.73,8.25a33.53,33.53,0,0,0,2.45,6,23.06,23.06,0,0,0,11.71,10.79c4.39,1.77,8.66,3.87,12.86,6.05,1.28.67,2,.83,2.67-.46s1.33-1.11,2.44-.31a15.53,15.53,0,0,0,4.72,2.38c4.19,1.17,8.49,2,12.69,3.12,3.75,1,7.59,1.91,10.46,4.91a1.7,1.7,0,0,0,1.66,0c3.21-3.09,7.31-4.1,11.44-5.08,3.79-.91,7.62-1.69,11.34-2.83A57,57,0,0,0,281,398ZM371.7,427.2l.87.43c2.9-4.08,6-8,8.67-12.25a68.92,68.92,0,0,0,10.26-27.89A64.73,64.73,0,0,0,387.67,354c-3.1-7.65-7.15-14.57-14-19.55a78.45,78.45,0,0,1-16-14.78c-8.24-10.47-13.55-21.91-12.65-35.6a8.79,8.79,0,0,0-.2-1.65l-.58-.12a18,18,0,0,0-1.32,3.53,119.19,119.19,0,0,0-1.5,12c-.37,7.21.41,14.39,3.44,21,2.08,4.51,5.1,8.61,7.81,12.81,2.47,3.82,5.13,7.52,7.61,11.33.43.66.37,1.64.62,2.88-5.19-5-10.07-9.39-14.66-14.1A38.09,38.09,0,0,1,335.76,312c-.33-1.74-.77-3.46-1.15-5.19a8.84,8.84,0,0,0-1.36,3.22c-2.77,14.48-1.38,28.36,6.29,41.21,3.83,6.42,8,12.65,11.92,19,7.94,12.73,11.26,26.41,8.53,41.37-2.23,12.2-6.47,23.53-14,33.51a22,22,0,0,0-1.22,2,1.13,1.13,0,0,0,1-.05A60.12,60.12,0,0,0,364.93,427,105.25,105.25,0,0,0,377,395.71a50.61,50.61,0,0,0-.39-21.86c-.19-.89-.48-1.77-.73-2.65a2.44,2.44,0,0,1,1.53,1.14,34.74,34.74,0,0,1,4.2,12.51,53.94,53.94,0,0,1-1.7,19.46,107.64,107.64,0,0,1-6.9,19.78C372.52,425.1,372.14,426.16,371.7,427.2Zm-242.52.06a3.7,3.7,0,0,0-.19-1.13,99.68,99.68,0,0,1-8.12-22.93c-2.12-8.71-2.74-17.41.49-26,.82-2.18,1.53-4.52,3.52-6.06a50.23,50.23,0,0,1-.91,5.25,46.33,46.33,0,0,0,.85,22.8c1.61,5.51,3.44,11,5.56,16.3,4.7,11.85,11.72,22,22.11,29.68,1.11.82,2.3,1.54,3.45,2.3l.43-.46c-.75-1-1.52-2-2.25-3.09a80.32,80.32,0,0,1-13.18-33.06C139,399,140.36,387.6,146,377c3.5-6.58,7.57-12.87,11.56-19.18,3.79-6,7.41-12.08,9.39-18.94A58.83,58.83,0,0,0,168.83,317c-.32-3.44-1.14-6.84-1.73-10.26l-.7,0c-.12.55-.28,1.09-.37,1.64-1.11,7.11-3.23,13.92-8.06,19.34-5.5,6.19-11.52,11.93-17.31,17.87l-.48-.13a7.31,7.31,0,0,1,.54-2.47c2.55-3.92,5-7.95,7.89-11.6a48.11,48.11,0,0,0,10.75-25.38c.64-6,.06-11.91-.66-17.82a35,35,0,0,0-1.82-6l-.82.16c0,.75.06,1.51,0,2.26-.41,4.47-.26,9.09-1.37,13.38-3.18,12.3-10.43,22.16-19.84,30.48-4,3.5-8.54,6.36-12.16,10.16-7.75,8.13-11.47,18.37-13.07,29.26-2.36,16,.84,31.06,8.78,45.13A60.47,60.47,0,0,0,129.19,427.26Zm314.07-76.64.54.2a6.52,6.52,0,0,0,.61-.92c3.56-8,7.43-15.8,10.55-23.93a66.35,66.35,0,0,0,4-16.11A65.07,65.07,0,0,0,454.37,278c-5.76-14.34-15.06-25.86-28.32-33.75-11.24-6.69-22.91-12.65-34.39-19-6.84-3.75-13.58-7.66-19.5-12.81-.76-.66-1.6-1.22-2.39-1.82-.23.29-.3.34-.31.39a3.06,3.06,0,0,0,0,.58,31.47,31.47,0,0,0,10.9,22.22c6.79,6,14.88,10,22.85,14.16,6.82,3.53,13.67,7,19.7,11.83,5.35,4.28,9.74,9.34,12.18,15.85.62,1.64,1,3.38,1.42,5.07l-.72.23c-.63-1.2-1.25-2.4-1.9-3.59-3.54-6.51-9.05-11.06-15.39-14.49-7.78-4.22-15.82-7.95-23.75-11.9-7.58-3.78-15.12-7.65-21-13.94a7.4,7.4,0,0,0-1.56-.85A39.71,39.71,0,0,0,379,249.45a55.92,55.92,0,0,0,10.49,10.46c7.67,5.62,15.75,10.68,23.73,15.86,6.34,4.12,12.62,8.33,17.32,14.37a73.47,73.47,0,0,1,13.09,27.35,61.37,61.37,0,0,1,1,26C444.15,345.86,443.69,348.24,443.26,350.62Zm-378-69.34-.47-.18a10.54,10.54,0,0,1,.16-2.31,34.09,34.09,0,0,1,7-13C78,258.76,86,254.32,94,249.92c7.59-4.15,15.27-8.19,22.5-12.9,8.46-5.5,13.86-13.32,14.91-23.68.08-.79.14-1.59.25-2.81a10.83,10.83,0,0,0-1.55.89c-6.2,5.56-13.28,9.81-20.55,13.77-10.39,5.67-20.87,11.17-31.21,16.91a70.48,70.48,0,0,0-29.21,30.22A69.37,69.37,0,0,0,42,297.15c-.64,6.4-.68,12.88,1,19.16a152.39,152.39,0,0,0,11,28.45c1,2.07,2.16,4.08,3.24,6.12l.53-.18c-.1-.88-.15-1.77-.31-2.64-.48-2.59-1.17-5.16-1.46-7.77a65.14,65.14,0,0,1,4.91-33.21c3.37-8,7.21-15.83,13.95-21.43a187.35,187.35,0,0,1,19.4-13.71c7.64-4.87,15.25-9.73,22-15.78,3.81-3.4,6.52-7.64,9-12,1.33-2.36,2.42-4.85,3.62-7.29l-.5-.31a11.47,11.47,0,0,0-1.44,1A71.25,71.25,0,0,1,110,249.09c-8.08,4.05-16.35,7.74-24.34,12C76.86,265.68,69.1,271.53,65.25,281.28ZM91.64,116l.05-.68c8.64-3.22,17.24-6.57,26.33-8.37,1.95-.38,4.18-.5,4.78-2.84a55.38,55.38,0,0,0,1.25-7.57c0-.41-.78-1.31-1.24-1.34-4.84-.3-9.7-.25-14.29,1.53a57.34,57.34,0,0,0-6.21,3.31,5.86,5.86,0,0,1,.81-1.71,20.36,20.36,0,0,1,3.73-3.21C113.38,91.32,120.54,90,128,89.9a1.55,1.55,0,0,1,1.78,1.84c-.15,3.69-.14,7.41-.55,11.07-.21,1.92.28,2.42,2,2.17.65-.09,1.32,0,2-.08a103.46,103.46,0,0,1,34.37,3.84,17.54,17.54,0,0,0,2.56.29c-2.44-3.73-4.32-7.16-6.73-10.17C155,88.32,143.5,84,130.36,83.54a61.93,61.93,0,0,0-28.67,5.91c-4.07,1.92-8.17,4.11-9.94,8.64-3.53,9.06-5.4,18.43-4.16,28.18.32,2.55,1.27,5,2.11,8.19a94.51,94.51,0,0,1,25.37-14.94l-.14-.86Zm319.73,18.47a69,69,0,0,0,2.06-8c1-7.66-.13-15.16-2.08-22.6-1.57-6-4.47-10.81-10.27-13.55A68.77,68.77,0,0,0,385.58,85c-9.84-2-19.55-2-29.21,1-11.86,3.75-19.6,11.95-25.17,23.07,1.06-.18,1.94-.28,2.79-.49,1.86-.46,3.69-1,5.56-1.45A109.5,109.5,0,0,1,370,105c1.64.11,2-.3,1.85-2-.36-3.68-.46-7.38-.62-11.08-.06-1.34.54-2.07,2-2.06A41.86,41.86,0,0,1,394,95c2.46,1.39,4.59,3.13,5.1,6.09a28.59,28.59,0,0,0-3.91-3.22c-4.21-2.4-8.9-2.79-13.64-2.82-5.06,0-5.27.23-4.44,5.27.71,4.3,1.93,5.61,5,6.46,7.31,2,14.57,4.24,21.83,6.46,1.89.58,3.69,1.44,5.53,2.17l-.07.52c-7.72,1.36-15.69,1.09-23.36,3.39A104.59,104.59,0,0,1,411.37,134.44ZM304.44,431.36a34.9,34.9,0,0,1-3.35,16.94c-2.53,5.16-5.54,10.08-8.46,15.3a14.31,14.31,0,0,0,2.18-.34c1.7-.54,3.37-1.15,5-1.77a62.33,62.33,0,0,0,21.47-13.2c7.07-6.69,12.15-14.78,16.61-23.31,1.51-2.89,3-5.8,4.46-8.7l.7.15a272,272,0,0,1-2.69,27.75,90.33,90.33,0,0,0,5.11-10.31,84.74,84.74,0,0,0,6.29-22.47c1.69-13.6-1.9-25.9-9.17-37.36-4.45-7-8.58-14.25-12.88-21.37a3.49,3.49,0,0,0-.87-.8c-1.7,3.1-3.13,6.14-5,8.9-.92,1.35-.93,2,.11,3.17,12.22,13.33,15.61,29,11.68,46.32-3.44,15.11-11.78,27.32-24,36.84-1.26,1-2.64,1.82-4,2.72l-.52-.27C309.19,443.07,309.15,436.9,304.44,431.36Zm-111,18.27a2.9,2.9,0,0,1-.92-.37c-3.87-3.29-8.07-6.29-11.52-10a61.44,61.44,0,0,1-16.25-32.52,50.68,50.68,0,0,1,2.88-28.23,48.23,48.23,0,0,1,9.57-14.73c.89-1,1.06-1.65.14-2.88a43,43,0,0,1-3.47-6,36.81,36.81,0,0,1-1.41-3.52,13.73,13.73,0,0,0-1.19,1.43c-3.2,5.4-6.21,10.91-9.6,16.19-5.23,8.16-10.18,16.4-11.91,26.15a54,54,0,0,0,.89,23.44c1.48,5.61,3.49,11.08,5.51,16.53,1.16,3.15,2.8,6.12,4.23,9.16l.7-.22a155.47,155.47,0,0,1-2.79-27.71,1.39,1.39,0,0,1,.83.7c2.28,4.33,4.52,8.68,6.85,13,8.34,15.39,20.48,26.43,37.19,32.15,1.72.59,3.5,1,5.26,1.47l.3-.59c-6.94-9.48-12.64-19.44-12.14-31.81-2.21,2.67-3.86,5.42-3.83,8.71S193.15,446.36,193.41,449.62ZM163.28,89.4c.78.89,1.22,1.34,1.6,1.84,2.46,3.17,5,6.32,7.35,9.55,1.89,2.54,3.48,5.33,5.53,7.73a34.3,34.3,0,0,0,6.71,6.38c4.27,2.85,9,5,13.32,7.77a50.46,50.46,0,0,0,13.41,6.22c4.32,1.2,8.62,2.49,12.94,3.72,1.78.51,3.57,1,5.35,1.48l.32-.48c-.24-.5-.46-1-.73-1.49-1.52-2.71-3.18-5.34-4.55-8.12-3-6.13-6.25-12.06-10.85-17.21a53,53,0,0,0-26.74-16.5A58.54,58.54,0,0,0,167.42,89C166.21,89.1,165,89.23,163.28,89.4Zm108.05,44.79c1.21-.31,2-.5,2.83-.74,3-.88,6.07-1.81,9.13-2.66,7.14-2,14.19-4.08,20.39-8.43,3.39-2.38,7.15-4.25,10.74-6.35,1.36-.8,3-1.36,4-2.47a114.24,114.24,0,0,0,8.66-10.27c3.09-4.27,5.49-9,9.65-12.49.29-.24.32-.78.49-1.25a4,4,0,0,0-.85-.33c-12.95-1.35-25.35.16-36.68,7.13A56.83,56.83,0,0,0,281,115.4c-3.41,5.57-6.27,11.47-9.36,17.23A6.63,6.63,0,0,0,271.34,134.19ZM268,314.31l-.17-.44a43.44,43.44,0,0,1-4.71-1.17c-2.09-.76-2.44-2.46-1-4.21a12.32,12.32,0,0,1,6.7-3.95c4.11-1.13,8.15-.39,12.19.39,1.6.31,3.19.73,4.46-.63s.16-2.81-.25-4.1c-1.54-4.82-4.8-6.77-9.16-5.42a20.23,20.23,0,0,0-4.58,2.33,21.85,21.85,0,0,1-12.81,3.43,135.44,135.44,0,0,0-14.3,0,26.86,26.86,0,0,1-16.53-4.38,11.28,11.28,0,0,0-5.93-1.72c-3.89.1-5.24,3.32-6.31,6.46-1.17,3.42.22,4.86,3.82,4.15a52.22,52.22,0,0,1,6.27-1c4.61-.33,9,.37,12.54,3.7,2.55,2.41,1.95,4.48-1.45,5.4a34.79,34.79,0,0,1-3.62.6,27.84,27.84,0,0,0,12.36,5.61c1.92.3,2.77-.88,3-2.61.38-2.48.73-5,1.13-7.44a12.49,12.49,0,0,1,.53-1.72h.59a20.8,20.8,0,0,1,.58,2.09c.39,2.28.69,4.58,1.1,6.85.47,2.59,1.66,3.36,4.22,2.64a41.6,41.6,0,0,0,5.44-1.85C264.15,316.45,266.06,315.33,268,314.31Z" transform="translate(-2 -2)"/><path id="oeil_gauche" data-name="oeil gauche" class="cls-2" d="M296.46,234.51c-.69,3.8-1.37,7.48-2,11.16-.14.78,0,1.61-.24,2.37-1.86,7.36-.12,13.85,4.52,19.74a25.16,25.16,0,0,1,3.14,5.57c-6.76-3.54-12.26-7.92-13.7-16.11-1.12-6.39-.56-12.65.07-19a35.65,35.65,0,0,0,.08-4.56c0-.39-.42-1.09-.61-1.08a2.44,2.44,0,0,0-1.26.65,3.72,3.72,0,0,1-1.68,1.07c.2-2.55.41-5.09.58-7.64.31-4.77-1.07-6.65-5.7-7.73-5.19-1.21-9.71-3.41-12.62-8.14a14,14,0,0,1-1.82-8.38,2.85,2.85,0,0,1,.25-.95c.07-.16.27-.26.44-.41,1.51,1.3,2.95,2.65,4.5,3.85a24,24,0,0,0,10.79,4.75c3.19.54,5.73-1.11,8.12-3,2.24-1.76,4.44-3.56,6.74-5.24,4.68-3.43,10.08-4.61,15.73-4.48,13.66.29,25.77,4.71,36,14,.56.52,1,1.13,2,2.15-1.31,0-2,.05-2.76,0-3.9-.34-7.68-.11-11.06,2.17a8.71,8.71,0,0,0-4.1,6.27,20.52,20.52,0,0,1-9.59,15.29c-6.14,3.92-12.74,5.28-19.61,2.2C300.36,238.07,298.58,236.12,296.46,234.51Zm30.88-14.68c.05-8.57-6.46-15.39-14.75-15.43-11.06,0-16.79,6.27-16.92,15.33a15.84,15.84,0,1,0,31.67.1Z" transform="translate(-2 -2)"/><path id="oeil_droit" data-name="oeil droit" class="cls-2" d="M216,234.17a3.7,3.7,0,0,1-.94-.23c-.58-.43-1.14-.9-1.71-1.36a7.38,7.38,0,0,0-.84,2.48c.17,3.43.43,6.87.82,10.28a31.86,31.86,0,0,1-2.72,17.93c-2.39,5-6.76,7.54-11.07,10.28l-.47-.29c.34-.69.62-1.41,1-2.07,2.06-3.45,4.32-6.79,6.17-10.35a15.34,15.34,0,0,0,1.16-9.53c-.64-4.11-1.68-8.15-2.38-12.26a29.08,29.08,0,0,1,0-4.82c-1.78,1.33-3.64,2.93-5.71,4.2a13.52,13.52,0,0,1-10.95,1.84c-2.78-.75-5.7-1.33-8.2-2.65a19.83,19.83,0,0,1-10.83-15.69c-.58-4.67-4.9-8-9.34-8.61a54.17,54.17,0,0,0-6.34-.15c-.56,0-1.13,0-2.25.09a19.3,19.3,0,0,1,1.42-1.84,50.77,50.77,0,0,1,21.68-12.24,55.06,55.06,0,0,1,16.84-2.12c6.65.16,12.11,2.86,17.09,6.94,1.38,1.13,2.8,2.22,4.18,3.35,3.31,2.71,6.92,2.92,10.81,1.44a28.1,28.1,0,0,0,11.83-8.17,10.56,10.56,0,0,1,0,7.48c-1.91,5.49-6,8.63-11.5,10.2-1.21.35-2.45.59-3.66.92a5.84,5.84,0,0,0-4.43,5.87c0,2.25.26,4.49.38,6.74C216.06,232.58,216,233.32,216,234.17Zm-27-29.79a14.75,14.75,0,0,0-15.3,15c0,10.46,7.1,16,15.94,16.42,7.76.39,15.76-6.7,15.71-15.71C205.33,210.9,200,204.8,189,204.38Z" transform="translate(-2 -2)"/><path id="sourcil_droit" data-name="sourcil droit" class="cls-2" d="M318.47,160.47c-2.63,1-5.19,2.51-7.92,3-4.26.82-8.64,1-13,1.46-5.78.57-11.65.67-17.33,1.77a21.23,21.23,0,0,0-14.78,11,5.68,5.68,0,0,1-1.14,1.12,4.64,4.64,0,0,1-.79-1.45c-.64-5.22,1.75-9.2,5.35-12.62A20.66,20.66,0,0,1,283,158.86c7.38-.08,14.77.72,22.16,1,3.61.13,7.24-.09,10.85-.14.74,0,1.48,0,2.22,0Z" transform="translate(-2 -2)"/><path id="sourcil_gauche" data-name="sourcil gauche" class="cls-2" d="M182.69,159.61a7.41,7.41,0,0,1,1.52,0c6.63,1.42,13.17,0,19.73-.57,6.2-.56,12.42-1.14,18.54.56,7,1.95,12.42,5.87,14.71,13.08a16.51,16.51,0,0,1,.25,5.1c0,.38-.57.75-.88,1.13a4.57,4.57,0,0,1-.88-.91c-3.36-6.31-8.68-10.34-15.59-11.35-8.15-1.19-16.45-1.39-24.67-2.12A22.77,22.77,0,0,1,182.69,159.61Z" transform="translate(-2 -2)"/><path id="pupille_gauche" data-name="pupille gauche" class="cls-2" d="M189.94,212.15a7.23,7.23,0,1,1-.15,14.46,7.24,7.24,0,0,1-7.11-7A7.13,7.13,0,0,1,189.94,212.15Z" transform="translate(-2 -2)"/><path id="pupille_droite" data-name="pupille droite" class="cls-2" d="M311.65,213.09a7.23,7.23,0,1,1-.15,14.46,7.24,7.24,0,0,1-7.11-7A7.13,7.13,0,0,1,311.65,213.09Z" transform="translate(-2 -2)"/></g><circle id="structure" class="cls-3" cx="248" cy="248" r="244"/></g></svg>